<svg width="24" height="24" viewBox="0 0 24 24" fill="none" xmlns="http://www.w3.org/2000/svg">
<g clip-path="url(#clip0_432_686)">
<path d="M12 12C15.309 12 18 9.309 18 6C18 2.691 15.309 0 12 0C8.691 0 6 2.691 6 6C6 9.309 8.691 12 12 12ZM12 2C14.206 2 16 3.794 16 6C16 8.206 14.206 10 12 10C9.794 10 8 8.206 8 6C8 3.794 9.794 2 12 2ZM22 23C22 23.553 21.553 24 21 24C20.447 24 20 23.553 20 23C20 20.214 18.363 17.802 16 16.676V19.172C17.164 19.585 18 20.696 18 22V23C18 23.553 17.553 24 17 24C16.447 24 16 23.553 16 23V22C16 21.448 15.552 21 15 21C14.448 21 14 21.448 14 22V23C14 23.553 13.553 24 13 24C12.447 24 12 23.553 12 23V22C12 20.696 12.836 19.585 14 19.172V16.072C13.673 16.025 13.339 16 13 16H11C10.305 16 9.634 16.102 9 16.292V19.269C9.598 19.615 10 20.261 10 21.001C10 22.106 9.105 23.001 8 23.001C6.895 23.001 6 22.106 6 21.001C6 20.261 6.402 19.615 7 19.269V17.26C5.188 18.527 4 20.628 4 23.001C4 23.554 3.553 24.001 3 24.001C2.447 24.001 2 23.554 2 23.001C2 18.038 6.037 14.001 11 14.001H13C17.963 14.001 22 18.037 22 23Z" fill="black"/>
</g>
<defs>
<clipPath id="clip0_432_686">
<rect width="24" height="24" fill="white"/>
</clipPath>
</defs>
</svg>
