<svg width="86" height="36" viewBox="0 0 86 36" fill="none" xmlns="http://www.w3.org/2000/svg">
<path d="M84.4844 17.5708C84.396 17.5753 84.3371 17.5867 84.3439 17.5982C84.353 17.6119 84.3258 17.621 84.2895 17.621C84.251 17.621 84.2192 17.6301 84.2192 17.6438C84.2192 17.6552 84.1943 17.6666 84.1626 17.6666C84.1308 17.6666 84.1059 17.6735 84.1059 17.6826C84.1059 17.694 84.0628 17.7214 84.013 17.7465C83.9223 17.7899 83.5619 18.1209 83.5619 18.1597C83.5619 18.1711 83.5415 18.1985 83.5166 18.2259C83.3715 18.3765 83.3126 18.4427 83.3126 18.4541C83.3126 18.4678 83.2718 18.5157 83.1381 18.6595C83.0973 18.7029 83.0633 18.744 83.0633 18.7508C83.0633 18.7668 82.9885 18.8513 82.8887 18.9494C82.8479 18.9882 82.8139 19.0293 82.8139 19.0407C82.8139 19.0521 82.7663 19.1115 82.7074 19.1731C82.576 19.3101 82.4762 19.4242 82.4876 19.4242C82.4944 19.4242 82.4649 19.4584 82.4241 19.4995C82.3833 19.5406 82.3289 19.6045 82.304 19.6387C82.279 19.6753 82.2224 19.7414 82.1793 19.7871C82.1362 19.835 82.0796 19.9012 82.0546 19.9355C82.0297 19.972 81.973 20.0382 81.93 20.0838C81.8869 20.1295 81.8302 20.1957 81.8053 20.2322C81.7509 20.3098 81.7237 20.3395 81.6602 20.3828C81.6353 20.4011 81.6126 20.4262 81.6126 20.4399C81.6126 20.4536 81.5696 20.5129 81.5175 20.5677C81.4631 20.6248 81.3905 20.7115 81.352 20.7595C81.3157 20.8097 81.2568 20.8804 81.2205 20.9169C81.1865 20.9535 81.1344 21.0151 81.1072 21.0516C81.08 21.0881 81.0143 21.1657 80.9621 21.2228C80.9077 21.2799 80.8647 21.3324 80.8647 21.3415C80.8647 21.3483 80.808 21.4145 80.74 21.4899C80.672 21.5652 80.5881 21.6611 80.5541 21.7021C80.5201 21.7432 80.468 21.8026 80.4408 21.8322C80.4114 21.8619 80.3887 21.8939 80.3887 21.9007C80.3887 21.9076 80.3547 21.9487 80.3162 21.992C80.1824 22.1358 80.1394 22.1838 80.1394 22.1974C80.1394 22.2043 80.0827 22.2682 80.0147 22.3412C79.9467 22.412 79.89 22.4782 79.89 22.4873C79.89 22.4965 79.8447 22.549 79.7903 22.6037C79.7359 22.6585 79.6747 22.7316 79.652 22.7658L79.6135 22.8251H78.3691H77.1248V20.7846C77.1248 19.447 77.118 18.7371 77.1021 18.728C77.0908 18.7212 77.0794 18.6687 77.0794 18.6139C77.0794 18.5591 77.0704 18.5066 77.0568 18.4998C77.0454 18.4929 77.0341 18.461 77.0341 18.429C77.0341 18.3993 77.025 18.3742 77.0115 18.3742C77.0001 18.3742 76.9888 18.3537 76.9888 18.3286C76.9888 18.3035 76.9775 18.2829 76.9639 18.2829C76.9525 18.2829 76.948 18.2715 76.9548 18.2601C76.9616 18.2464 76.9571 18.2373 76.9457 18.2373C76.9321 18.2373 76.9208 18.2236 76.9208 18.2076C76.9208 18.1916 76.9004 18.1642 76.8755 18.146C76.8505 18.1277 76.8301 18.1026 76.8301 18.0912C76.8301 18.0684 76.6352 17.8721 76.6125 17.8721C76.608 17.8721 76.5785 17.8515 76.5513 17.8241C76.5241 17.799 76.4629 17.7602 76.4176 17.7397C76.37 17.7191 76.3315 17.694 76.3315 17.6849C76.3315 17.6735 76.3111 17.6666 76.2861 17.6666C76.2612 17.6666 76.2408 17.6552 76.2408 17.6438C76.2408 17.6301 76.2113 17.621 76.1728 17.621C76.1365 17.621 76.1048 17.6096 76.1048 17.5982C76.1048 17.5845 75.9801 17.5753 75.7762 17.5753C75.5722 17.5753 75.4475 17.5845 75.4475 17.5982C75.4475 17.6096 75.418 17.621 75.3795 17.621C75.3432 17.621 75.3115 17.6278 75.3115 17.637C75.3115 17.6484 75.2548 17.6803 75.1868 17.7123C75.1188 17.7442 75.0622 17.7762 75.0622 17.7853C75.0622 17.7945 75.0395 17.8082 75.0123 17.8173C74.9647 17.831 74.6769 18.1117 74.6769 18.1437C74.6769 18.1528 74.6519 18.1916 74.6202 18.2281C74.5885 18.2647 74.5635 18.3126 74.5635 18.3331C74.5635 18.356 74.5545 18.3742 74.5409 18.3742C74.5295 18.3742 74.5182 18.397 74.5182 18.4267C74.5182 18.4564 74.5046 18.4929 74.491 18.5066C74.4683 18.5294 74.4615 19.6775 74.4638 24.0988C74.4638 27.1574 74.4683 29.6841 74.4706 29.7115C74.4729 29.7389 74.4842 29.7686 74.4955 29.7754C74.5091 29.7823 74.5182 29.8188 74.5182 29.8576C74.5182 29.8941 74.5295 29.9238 74.5409 29.9238C74.5545 29.9238 74.5635 29.9398 74.5635 29.958C74.5635 29.9763 74.5749 29.9923 74.5862 29.9923C74.5998 29.9923 74.6089 30.0128 74.6089 30.0379C74.6089 30.063 74.6179 30.0836 74.6293 30.0836C74.6406 30.0836 74.6565 30.1018 74.6633 30.1224C74.6837 30.1817 74.9035 30.41 74.9896 30.4602C75.0282 30.4853 75.0622 30.5127 75.0622 30.5218C75.0622 30.5309 75.078 30.5401 75.0962 30.5401C75.1143 30.5401 75.1302 30.5492 75.1302 30.5629C75.1302 30.5743 75.1506 30.5857 75.1755 30.5857C75.2004 30.5857 75.2208 30.5949 75.2208 30.6085C75.2208 30.62 75.2458 30.6314 75.2775 30.6314C75.3092 30.6314 75.3342 30.6405 75.3342 30.6542C75.3342 30.6679 75.4951 30.677 75.7739 30.677C76.0436 30.677 76.2204 30.6679 76.2295 30.6542C76.2363 30.6405 76.2635 30.6314 76.2884 30.6314C76.3111 30.6314 76.3315 30.62 76.3315 30.6085C76.3315 30.5949 76.3519 30.5857 76.3768 30.5857C76.4017 30.5857 76.4221 30.5743 76.4221 30.5629C76.4221 30.5492 76.438 30.5401 76.4561 30.5401C76.4743 30.5401 76.4901 30.5309 76.4901 30.5218C76.4901 30.5127 76.5219 30.4853 76.5627 30.4602C76.642 30.4145 76.8301 30.2319 76.8301 30.2023C76.8301 30.1931 76.8505 30.1703 76.8755 30.152C76.9004 30.1338 76.9208 30.1018 76.9208 30.0813C76.9208 30.0607 76.9344 30.0311 76.9525 30.0174C76.9707 30.0014 76.9979 29.9443 77.0137 29.8896C77.0296 29.8325 77.0522 29.7868 77.0613 29.7868C77.0704 29.7868 77.0794 29.7412 77.0794 29.6841C77.0794 29.6271 77.0908 29.5814 77.1021 29.5814C77.118 29.5814 77.1225 28.8989 77.1202 27.5271L77.1134 25.4729H78.3782C79.4095 25.4729 79.6407 25.4774 79.6407 25.5025C79.6407 25.5208 79.6974 25.5916 79.7654 25.6623C79.8334 25.7331 79.89 25.7947 79.89 25.8016C79.89 25.813 79.9898 25.9317 80.0895 26.0344C80.1167 26.064 80.1394 26.0937 80.1394 26.1006C80.1394 26.1165 80.2119 26.201 80.3162 26.3014C80.3547 26.3402 80.3887 26.3813 80.3887 26.3904C80.3887 26.4019 80.4408 26.4612 80.502 26.5274C80.5655 26.5913 80.6153 26.6529 80.6153 26.6598C80.6153 26.6689 80.6584 26.7214 80.7128 26.7785C80.7649 26.8355 80.8307 26.9131 80.8579 26.9497C80.8851 26.9862 80.9372 27.0478 80.9712 27.0843C81.0052 27.1209 81.0755 27.203 81.1253 27.2647C81.1729 27.3286 81.2296 27.3948 81.25 27.413C81.2704 27.4313 81.3157 27.4861 81.3497 27.534C81.386 27.5796 81.4517 27.6572 81.4971 27.7075C81.6353 27.8558 81.7917 28.0384 81.8325 28.0978C81.8529 28.1297 81.9118 28.1936 81.9594 28.2393C82.007 28.2872 82.0388 28.326 82.0297 28.326C82.0206 28.326 82.0365 28.3443 82.0614 28.3694C82.0886 28.3922 82.1113 28.4196 82.1113 28.4287C82.1113 28.4379 82.1408 28.4721 82.1748 28.5041C82.2088 28.5383 82.2677 28.6068 82.304 28.657C82.3425 28.7072 82.4128 28.7894 82.4626 28.8396C82.5125 28.8898 82.5669 28.9583 82.585 28.9925C82.6032 29.0268 82.6349 29.061 82.6598 29.0701C82.6825 29.077 82.7006 29.0907 82.7006 29.1021C82.7006 29.1135 82.7256 29.1477 82.7573 29.1797C82.789 29.2116 82.8139 29.2436 82.8139 29.2504C82.8139 29.2573 82.8479 29.2984 82.8887 29.3417C83.0225 29.4855 83.0633 29.5335 83.0633 29.5472C83.0633 29.5586 83.1222 29.6248 83.2673 29.7754C83.2922 29.8028 83.3126 29.8302 83.3126 29.8393C83.3126 29.8462 83.3647 29.9078 83.4259 29.9717C83.4894 30.0356 83.5393 30.0973 83.5393 30.1064C83.5393 30.1406 83.9064 30.4921 83.9699 30.5218C84.0084 30.5378 84.0379 30.5583 84.0379 30.5675C84.0379 30.5789 84.0583 30.5857 84.0832 30.5857C84.1082 30.5857 84.1286 30.5949 84.1286 30.6085C84.1286 30.62 84.149 30.6314 84.1739 30.6314C84.1988 30.6314 84.2192 30.6405 84.2192 30.6542C84.2192 30.6679 84.3847 30.677 84.6703 30.677C84.9491 30.677 85.1281 30.6679 85.1372 30.6542C85.144 30.6405 85.1712 30.6314 85.1961 30.6314C85.2188 30.6314 85.2392 30.62 85.2392 30.6085C85.2392 30.5949 85.2596 30.5857 85.2845 30.5857C85.3095 30.5857 85.3299 30.5743 85.3299 30.5629C85.3299 30.5492 85.3457 30.5401 85.3639 30.5401C85.382 30.5401 85.3979 30.5309 85.3979 30.5218C85.3979 30.5127 85.4296 30.4853 85.4704 30.4602C85.5452 30.4168 85.7379 30.2342 85.7379 30.2068C85.7379 30.1977 85.756 30.1749 85.7787 30.1543C85.8263 30.1087 85.9419 29.8804 85.9419 29.8279C85.9419 29.8074 85.9555 29.7868 85.9691 29.7823C86.0099 29.7686 86.0099 28.9834 85.9713 28.972C85.9555 28.9651 85.9419 28.9355 85.9419 28.9058C85.9419 28.8761 85.9328 28.851 85.9192 28.851C85.9079 28.851 85.8965 28.8305 85.8965 28.8076C85.8965 28.7825 85.8807 28.7483 85.8625 28.7277C85.8444 28.7095 85.8285 28.6798 85.8285 28.6638C85.8285 28.6456 85.8081 28.6182 85.7832 28.5999C85.7583 28.5817 85.7379 28.5588 85.7379 28.5474C85.7379 28.536 85.7084 28.4995 85.6744 28.4675C85.6404 28.4333 85.5815 28.3648 85.5452 28.3146C85.5067 28.2644 85.4455 28.1936 85.4092 28.1548C85.3707 28.1183 85.3027 28.0407 85.2573 27.9836C85.212 27.9266 85.1417 27.8444 85.0987 27.7988C85.0579 27.7531 84.9967 27.6801 84.9627 27.639C84.931 27.5956 84.872 27.5249 84.8358 27.4815C84.7972 27.4381 84.7451 27.3765 84.7202 27.3445C84.6159 27.2213 84.498 27.0866 84.4119 26.9907C84.362 26.9382 84.3008 26.8652 84.2759 26.8287C84.251 26.7945 84.1943 26.7283 84.1512 26.6803C84.1082 26.6347 84.0515 26.5685 84.0266 26.532C84.0016 26.4977 83.9336 26.4178 83.8747 26.3585C83.8135 26.2969 83.7659 26.2398 83.7659 26.2284C83.7659 26.2193 83.7047 26.1439 83.6299 26.064C83.4463 25.8677 83.3421 25.7491 83.2831 25.6692C83.2559 25.6326 83.2061 25.5756 83.1743 25.5413C83.1426 25.5048 83.0859 25.4386 83.0497 25.3907C83.0134 25.345 82.9477 25.2674 82.9023 25.2195C82.857 25.1739 82.7958 25.1008 82.7663 25.0597C82.7369 25.0164 82.6825 24.9502 82.644 24.9137C82.6054 24.8748 82.551 24.8132 82.5216 24.7767C82.4944 24.7379 82.4377 24.6717 82.3992 24.6283C82.3584 24.585 82.2858 24.4982 82.236 24.4343C82.1861 24.3727 82.1113 24.286 82.0728 24.2426C82.032 24.1992 81.998 24.1536 81.998 24.1399C81.998 24.1285 82.0365 24.0828 82.0818 24.0372C82.1272 23.9938 82.1861 23.9253 82.211 23.8865C82.2564 23.8203 82.3448 23.7199 82.4785 23.5761C82.5125 23.5396 82.5352 23.5099 82.5261 23.5099C82.5193 23.5099 82.5329 23.4916 82.5556 23.4688C82.5782 23.4483 82.6372 23.3844 82.6848 23.3273C82.7754 23.2177 82.9454 23.0237 83.0451 22.9142C83.0769 22.8776 83.0995 22.848 83.095 22.848C83.0882 22.848 83.1177 22.8137 83.1585 22.7704C83.2786 22.6448 83.3579 22.5512 83.3466 22.5512C83.3398 22.5512 83.367 22.517 83.4078 22.4759C83.4486 22.4348 83.503 22.3732 83.5257 22.339C83.5506 22.307 83.5801 22.2865 83.5914 22.2933C83.605 22.3002 83.6073 22.2956 83.5982 22.2819C83.5891 22.2682 83.6209 22.218 83.6685 22.1701C83.7161 22.1221 83.7705 22.0582 83.7886 22.0285C83.8294 21.9646 83.8589 21.935 83.9223 21.8893C83.9472 21.871 83.9699 21.8459 83.9699 21.8322C83.9699 21.8208 84.0288 21.7478 84.1014 21.6702C84.1716 21.5926 84.251 21.5036 84.2759 21.4693C84.3008 21.4351 84.3552 21.3689 84.396 21.3232C84.4368 21.2753 84.4935 21.2091 84.5207 21.1749C84.5479 21.1384 84.6136 21.063 84.668 21.0083C84.7202 20.9512 84.7632 20.8987 84.7632 20.8896C84.7632 20.8804 84.8199 20.812 84.8879 20.7366C84.9559 20.6613 85.0398 20.5654 85.0737 20.5244C85.1077 20.4833 85.1599 20.4239 85.1893 20.3943C85.2165 20.3646 85.2392 20.3326 85.2392 20.3258C85.2392 20.3189 85.3004 20.2505 85.3752 20.1728C85.45 20.0975 85.5112 20.0245 85.5112 20.0131C85.5112 20.0017 85.5588 19.9446 85.62 19.883C85.6789 19.8236 85.7401 19.7483 85.7583 19.7141C85.7764 19.6798 85.7991 19.6524 85.8104 19.6524C85.8195 19.6524 85.8285 19.6365 85.8285 19.6182C85.8285 19.5999 85.8399 19.584 85.8535 19.584C85.8648 19.584 85.8693 19.5725 85.8625 19.5611C85.8557 19.5474 85.8603 19.5383 85.8716 19.5383C85.8852 19.5383 85.8965 19.5178 85.8965 19.4949C85.8965 19.4698 85.9079 19.4424 85.9192 19.4356C85.9328 19.4287 85.9419 19.4014 85.9419 19.3785C85.9419 19.3557 85.9555 19.3329 85.9713 19.326C86.0099 19.3146 86.0099 18.5477 85.9691 18.5066C85.9555 18.4929 85.9419 18.4564 85.9419 18.4267C85.9419 18.397 85.9328 18.3742 85.9215 18.3742C85.9101 18.3742 85.8965 18.3423 85.8875 18.3057C85.8807 18.2669 85.8489 18.2099 85.8195 18.1802C85.79 18.1505 85.7583 18.1049 85.7492 18.0798C85.7424 18.0547 85.7175 18.0296 85.6971 18.0227C85.6767 18.0159 85.6381 17.9793 85.6132 17.9405C85.5883 17.904 85.5543 17.8721 85.5407 17.8721C85.5248 17.8721 85.5112 17.8629 85.5112 17.8538C85.5112 17.8447 85.4523 17.8059 85.382 17.7693C85.3095 17.7305 85.2483 17.694 85.2437 17.6826C85.2392 17.6735 85.2165 17.6666 85.1916 17.6666C85.1689 17.6666 85.1485 17.6552 85.1485 17.6438C85.1485 17.6301 85.1191 17.621 85.0828 17.621C85.0465 17.621 85.0126 17.6119 85.008 17.6027C84.999 17.5776 84.6952 17.5594 84.4844 17.5708Z" fill="#133115"/>
<path d="M0.984685 17.5901C0.984685 17.6016 0.954916 17.613 0.915986 17.613C0.879347 17.613 0.847287 17.6221 0.847287 17.6358C0.847287 17.6472 0.826678 17.6586 0.801488 17.6586C0.776299 17.6586 0.755689 17.6678 0.755689 17.6769C0.755689 17.6883 0.719049 17.7089 0.67554 17.7272C0.632031 17.7454 0.595391 17.766 0.595391 17.7751C0.595391 17.7843 0.574782 17.8003 0.547302 17.8071C0.492343 17.8254 0.251896 18.0515 0.251896 18.0857C0.251896 18.0972 0.233577 18.1291 0.212967 18.1565C0.190067 18.1817 0.153428 18.2251 0.130528 18.2502C0.109918 18.2776 0.0915986 18.3141 0.0915986 18.3324C0.0915986 18.3507 0.0824388 18.3667 0.068699 18.3667C0.0572492 18.3667 0.0457993 18.3964 0.0457993 18.4352C0.0457993 18.4717 0.0366395 18.5037 0.0228997 18.5037C0.0068699 18.5037 0 20.3994 0 24.145C0 27.8906 0.0068699 29.7863 0.0228997 29.7863C0.0366395 29.7863 0.0457993 29.8068 0.0457993 29.832C0.0457993 29.8799 0.0824388 29.9576 0.130528 30.0101C0.146558 30.0261 0.160298 30.0489 0.160298 30.0581C0.160298 30.0832 0.226707 30.1609 0.377844 30.3116C0.531272 30.4669 0.563332 30.4943 0.595391 30.4943C0.606841 30.4943 0.618291 30.5034 0.618291 30.5172C0.618291 30.5286 0.634321 30.54 0.65264 30.54C0.67096 30.54 0.68699 30.5491 0.68699 30.5628C0.68699 30.5742 0.7076 30.5857 0.732789 30.5857C0.757979 30.5857 0.778589 30.5948 0.778589 30.6085C0.778589 30.6199 0.799198 30.6313 0.824388 30.6313C0.849577 30.6313 0.870187 30.6405 0.870187 30.6542C0.870187 30.6679 1.03277 30.677 1.31444 30.677C1.58695 30.677 1.76556 30.6679 1.77472 30.6542C1.78159 30.6405 1.80907 30.6313 1.83426 30.6313C1.85716 30.6313 1.87777 30.6199 1.87777 30.6085C1.87777 30.5948 1.89838 30.5857 1.92357 30.5857C1.94876 30.5857 1.96937 30.5742 1.96937 30.5628C1.96937 30.5491 1.9854 30.54 2.00372 30.54C2.02204 30.54 2.03807 30.5309 2.03807 30.5194C2.03807 30.508 2.05868 30.4897 2.08387 30.4829C2.14341 30.4646 2.42049 30.1883 2.43881 30.1289C2.44568 30.1038 2.464 30.0832 2.47545 30.0832C2.4869 30.0832 2.49606 30.0626 2.49606 30.0375C2.49606 30.0124 2.50751 29.9918 2.51896 29.9918C2.5327 29.9918 2.54186 29.9759 2.54186 29.9576C2.54186 29.9393 2.55331 29.9233 2.56476 29.9233C2.5785 29.9233 2.58766 29.8914 2.58766 29.8548C2.58766 29.816 2.59911 29.7863 2.61056 29.7863C2.6243 29.7863 2.63346 29.7498 2.63346 29.7064C2.63346 29.663 2.64491 29.6264 2.65636 29.6264C2.67239 29.6264 2.67697 29.1879 2.67468 28.3017L2.66781 26.9771H4.94175C6.45312 26.9771 7.2111 26.9702 7.20194 26.9542C7.19278 26.9405 7.24087 26.9314 7.3256 26.9314C7.40346 26.9314 7.46529 26.9223 7.46529 26.9085C7.46529 26.8948 7.51109 26.8857 7.56605 26.8857C7.6233 26.8857 7.67597 26.8743 7.68284 26.8629C7.68971 26.8492 7.72177 26.84 7.75383 26.84C7.7836 26.84 7.8271 26.8309 7.85 26.8195C7.89809 26.7966 8.06755 26.7487 8.1706 26.7327C8.20953 26.7258 8.24388 26.7121 8.24388 26.7007C8.24388 26.6893 8.26449 26.6802 8.28968 26.6802C8.31487 26.6802 8.33548 26.6687 8.33548 26.6573C8.33548 26.6436 8.36067 26.6345 8.39273 26.6345C8.42479 26.6345 8.44998 26.6231 8.44998 26.6116C8.44998 26.5979 8.46372 26.5888 8.48203 26.5888C8.49806 26.5888 8.54386 26.5728 8.57821 26.5545C8.61485 26.5363 8.66294 26.5203 8.68584 26.5203C8.70874 26.5203 8.72019 26.5089 8.71332 26.4974C8.70645 26.4837 8.72019 26.4746 8.74538 26.4746C8.77286 26.4746 8.79347 26.4632 8.79347 26.4518C8.79347 26.4381 8.80721 26.4289 8.82553 26.4289C8.84385 26.4289 8.86217 26.4221 8.86675 26.4107C8.87591 26.3901 8.99041 26.3193 9.07285 26.285C9.10949 26.2713 9.13696 26.2508 9.13696 26.2416C9.13696 26.2325 9.15071 26.2234 9.16902 26.2234C9.18734 26.2234 9.20566 26.2165 9.21024 26.2051C9.2194 26.1868 9.3797 26.0635 9.39802 26.0635C9.40947 26.0635 9.55832 25.9333 9.69114 25.8054C9.71404 25.7849 9.73694 25.7666 9.74381 25.7666C9.75068 25.7666 9.7919 25.7323 9.83311 25.6912C9.87433 25.6524 9.93158 25.6021 9.95906 25.5839C9.98425 25.5656 10.0117 25.5359 10.0186 25.5154C10.0255 25.4971 10.085 25.424 10.1514 25.3532C10.2155 25.2824 10.2911 25.1979 10.3163 25.1636C10.3415 25.1271 10.3735 25.0883 10.385 25.0723C10.3987 25.0586 10.4216 25.0197 10.44 24.9832C10.4583 24.9489 10.4812 24.9215 10.4926 24.9215C10.5087 24.9215 10.5476 24.8553 10.6598 24.6452C10.6712 24.6201 10.6896 24.6018 10.6987 24.6018C10.7102 24.6018 10.717 24.5812 10.717 24.5561C10.717 24.531 10.7262 24.5104 10.7377 24.5104C10.7491 24.5104 10.7651 24.4853 10.772 24.4533C10.7812 24.4214 10.7972 24.3962 10.8086 24.3962C10.8224 24.3962 10.8315 24.3757 10.8315 24.3506C10.8315 24.3254 10.843 24.3049 10.8544 24.3049C10.8682 24.3049 10.8773 24.2797 10.8773 24.2478C10.8773 24.2158 10.8888 24.1907 10.9002 24.1907C10.914 24.1907 10.9231 24.1701 10.9231 24.145C10.9231 24.1199 10.9346 24.0993 10.946 24.0993C10.9598 24.0993 10.9689 24.0788 10.9689 24.0536C10.9689 24.0285 10.9781 24.008 10.9895 24.008C11.001 24.008 11.0193 23.9509 11.0262 23.8823C11.0353 23.8138 11.0514 23.7567 11.0628 23.7567C11.0743 23.7567 11.0834 23.7316 11.0834 23.6996C11.0834 23.6677 11.0949 23.6425 11.1063 23.6425C11.1201 23.6425 11.1292 23.606 11.1292 23.5626C11.1292 23.5192 11.1407 23.4827 11.1521 23.4827C11.1659 23.4827 11.175 23.4415 11.175 23.3913C11.175 23.3411 11.1865 23.2999 11.1979 23.2999C11.2117 23.2999 11.2208 23.2497 11.2208 23.188C11.2208 23.1241 11.2323 23.067 11.246 23.0601C11.2575 23.051 11.2689 22.9711 11.2712 22.882C11.2781 22.3978 11.2735 21.8314 11.2598 21.6898C11.2254 21.3129 11.2163 21.2444 11.1956 21.2581C11.1842 21.265 11.175 21.2239 11.175 21.1668C11.175 21.1097 11.1659 21.0617 11.1521 21.0617C11.1407 21.0617 11.1292 21.0252 11.1292 20.9818C11.1292 20.9384 11.1201 20.9018 11.1086 20.9018C11.0972 20.9018 11.0834 20.8744 11.0766 20.8379C11.0353 20.646 11.0033 20.5364 10.9873 20.5364C10.9781 20.5364 10.9689 20.5158 10.9689 20.4907C10.9689 20.4656 10.9598 20.445 10.946 20.445C10.9346 20.445 10.9231 20.4245 10.9231 20.3994C10.9231 20.3742 10.914 20.3537 10.9002 20.3537C10.8888 20.3537 10.8773 20.3286 10.8773 20.2966C10.8773 20.2646 10.8682 20.2395 10.8544 20.2395C10.843 20.2395 10.8315 20.2189 10.8315 20.1938C10.8315 20.1687 10.8224 20.1481 10.8109 20.1481C10.7995 20.1481 10.7835 20.123 10.7766 20.091C10.7674 20.0591 10.7514 20.0339 10.7399 20.0339C10.7262 20.0339 10.717 20.0134 10.717 19.9883C10.717 19.9631 10.7079 19.9426 10.6941 19.9426C10.6827 19.9426 10.6712 19.9266 10.6712 19.9083C10.6712 19.89 10.6621 19.8741 10.6483 19.8741C10.6369 19.8741 10.6254 19.8535 10.6254 19.8284C10.6254 19.8033 10.6163 19.7827 10.6071 19.7827C10.5957 19.7827 10.5705 19.7462 10.5499 19.7028C10.5293 19.6594 10.5018 19.6228 10.488 19.6228C10.4766 19.6228 10.4651 19.6091 10.4651 19.5931C10.4651 19.5771 10.4285 19.5246 10.385 19.4767C10.3415 19.4287 10.3048 19.3807 10.3048 19.3716C10.3048 19.3625 10.2384 19.2848 10.156 19.198C10.0759 19.1112 10.0072 19.0267 10.0072 19.0107C10.0072 18.997 9.99799 18.9833 9.98883 18.9833C9.97738 18.9833 9.92013 18.9376 9.86288 18.8805C9.80335 18.8235 9.75068 18.7778 9.7461 18.7778C9.74152 18.7778 9.68885 18.7321 9.6316 18.675C9.57206 18.6179 9.51481 18.5722 9.50336 18.5722C9.4942 18.5722 9.48046 18.5654 9.47588 18.5539C9.47359 18.5448 9.41176 18.4968 9.34306 18.4466C9.27436 18.3964 9.21482 18.3484 9.21024 18.3393C9.20566 18.3278 9.18734 18.321 9.17131 18.321C9.15528 18.321 9.13696 18.3141 9.13239 18.3027C9.12323 18.2822 8.95835 18.1862 8.90339 18.168C8.88049 18.1611 8.86217 18.1474 8.86217 18.136C8.86217 18.1246 8.84614 18.1154 8.82782 18.1154C8.8095 18.1154 8.79347 18.104 8.79347 18.0926C8.79347 18.0789 8.77744 18.0698 8.75912 18.0698C8.7408 18.0698 8.72477 18.0606 8.72477 18.0492C8.72477 18.0378 8.68355 18.0218 8.63317 18.0127C8.58279 18.0035 8.54157 17.9875 8.54157 17.9761C8.54157 17.9647 8.52096 17.9556 8.49577 17.9556C8.47058 17.9556 8.44998 17.9441 8.44998 17.9327C8.44998 17.919 8.42937 17.9099 8.40647 17.9099C8.38128 17.9099 8.3538 17.8985 8.34693 17.887C8.34006 17.8733 8.31258 17.8642 8.28739 17.8642C8.26449 17.8642 8.24388 17.8551 8.24388 17.8436C8.24388 17.8322 8.1935 17.8185 8.12938 17.8094C8.06755 17.8003 8.0103 17.7843 8.00343 17.7728C7.99656 17.7591 7.95992 17.75 7.92328 17.75C7.88664 17.75 7.85 17.7386 7.84313 17.7272C7.83626 17.7135 7.79962 17.7043 7.76299 17.7043C7.72635 17.7043 7.68971 17.6929 7.68284 17.6815C7.67597 17.6678 7.62788 17.6586 7.5775 17.6586C7.52941 17.6586 7.48819 17.6472 7.48819 17.6358C7.48819 17.6221 7.42178 17.613 7.33705 17.613C7.24316 17.613 7.19278 17.6038 7.20194 17.5901C7.2111 17.5741 6.17146 17.5673 4.10133 17.5673C2.03807 17.5673 0.984685 17.5741 0.984685 17.5901ZM6.6867 20.26C6.6867 20.2692 6.77601 20.2852 6.88822 20.292C7.07142 20.3034 7.18362 20.3286 7.28667 20.3788C7.30957 20.3902 7.34392 20.3994 7.36224 20.3994C7.38056 20.3994 7.39659 20.4085 7.39659 20.4222C7.39659 20.4336 7.4172 20.445 7.44239 20.445C7.46758 20.445 7.48819 20.4542 7.48819 20.4679C7.48819 20.4793 7.50193 20.4907 7.52025 20.4907C7.53857 20.4907 7.55689 20.4976 7.56147 20.5067C7.56605 20.5181 7.60727 20.5455 7.65536 20.5684C7.70345 20.5935 7.77215 20.6415 7.80878 20.678C7.84771 20.7123 7.88435 20.7419 7.89351 20.7419C7.93473 20.7419 8.26678 21.1211 8.26678 21.169C8.26678 21.185 8.27594 21.1987 8.28968 21.1987C8.30113 21.1987 8.31716 21.2239 8.32632 21.2558C8.33319 21.2878 8.34922 21.3129 8.36067 21.3129C8.37212 21.3129 8.38128 21.3335 8.38128 21.3586C8.38128 21.3837 8.38815 21.4043 8.3996 21.4043C8.4225 21.4043 8.47287 21.5185 8.47287 21.5687C8.47287 21.5916 8.48203 21.6098 8.49348 21.6098C8.50264 21.6098 8.50722 21.635 8.50035 21.6669C8.49577 21.7012 8.50035 21.724 8.51638 21.724C8.53012 21.724 8.54157 21.7674 8.54157 21.8268C8.54157 21.8839 8.55302 21.9296 8.56447 21.9296C8.57821 21.9296 8.58737 22.0506 8.58737 22.2493C8.58737 22.448 8.57821 22.5691 8.56447 22.5691C8.55302 22.5691 8.54157 22.6148 8.54157 22.6696C8.54157 22.7267 8.53241 22.7769 8.52096 22.7838C8.5118 22.7906 8.49577 22.8477 8.48662 22.9117C8.47746 22.9733 8.46142 23.0259 8.44998 23.0259C8.43624 23.0259 8.42708 23.051 8.42708 23.083C8.42708 23.1149 8.41792 23.1401 8.40418 23.1401C8.39273 23.1401 8.38128 23.1538 8.38128 23.1698C8.38128 23.1857 8.36067 23.2223 8.33319 23.2497C8.308 23.2771 8.29426 23.3114 8.30113 23.3228C8.308 23.3365 8.30571 23.3456 8.29197 23.3456C8.28052 23.3456 8.2622 23.3662 8.25533 23.3913C8.24617 23.4164 8.2164 23.4644 8.18434 23.4941C8.15457 23.5238 8.12938 23.5557 8.12938 23.5626C8.12938 23.5809 7.90954 23.8024 7.89122 23.8024C7.88435 23.8024 7.84771 23.8321 7.80878 23.8664C7.77215 23.9029 7.70345 23.9509 7.65536 23.976C7.60727 23.9988 7.56605 24.0262 7.56147 24.0354C7.55689 24.0468 7.53857 24.0536 7.52025 24.0536C7.50193 24.0536 7.48819 24.0628 7.48819 24.0765C7.48819 24.0879 7.47445 24.0993 7.45842 24.0993C7.4401 24.0993 7.39201 24.1176 7.3485 24.1381C7.19736 24.2158 7.10806 24.2386 6.89967 24.2523C6.78288 24.2592 6.69357 24.2752 6.70044 24.2843C6.70731 24.2957 5.80277 24.3049 4.68985 24.3049H2.66781V22.2722V20.2395H4.6784C5.78674 20.2395 6.6867 20.2486 6.6867 20.26Z" fill="#133115"/>
<path d="M14.107 17.5901C14.1161 17.6038 14.089 17.613 14.0415 17.613C13.9963 17.613 13.9602 17.6221 13.9602 17.6358C13.9602 17.6472 13.9398 17.6586 13.915 17.6586C13.8901 17.6586 13.8698 17.6678 13.8698 17.6815C13.8698 17.6929 13.8495 17.7043 13.8246 17.7043C13.7998 17.7043 13.7794 17.7135 13.7794 17.7249C13.7794 17.7363 13.7546 17.7523 13.7229 17.7591C13.6552 17.7774 13.3389 18.0857 13.3185 18.1565C13.3095 18.184 13.2914 18.2068 13.2801 18.2068C13.2688 18.2068 13.2598 18.2228 13.2598 18.241C13.2598 18.2593 13.2507 18.2753 13.2372 18.2753C13.2259 18.2753 13.2146 18.2959 13.2146 18.321C13.2146 18.3461 13.2056 18.3667 13.192 18.3667C13.1807 18.3667 13.1694 18.3964 13.1694 18.4329C13.1694 18.4694 13.1559 18.5037 13.1423 18.5083C13.0994 18.5243 13.0994 29.7657 13.1423 29.7794C13.1559 29.7863 13.1694 29.8068 13.1694 29.8297C13.1694 29.8799 13.2214 29.9918 13.244 29.9918C13.253 29.9918 13.2598 30.0124 13.2598 30.0375C13.2598 30.0626 13.2688 30.0832 13.2801 30.0832C13.2914 30.0832 13.3072 30.1038 13.3163 30.1266C13.3343 30.186 13.6055 30.4623 13.6642 30.4829C13.6891 30.4897 13.7116 30.508 13.7116 30.5194C13.7116 30.5309 13.7275 30.54 13.7455 30.54C13.7636 30.54 13.7794 30.5491 13.7794 30.5628C13.7794 30.5742 13.7998 30.5857 13.8246 30.5857C13.8495 30.5857 13.8698 30.5948 13.8698 30.6085C13.8698 30.6199 13.8947 30.6313 13.9263 30.6313C13.9579 30.6313 13.9828 30.6405 13.9828 30.6542C13.9828 30.6702 15.6275 30.677 18.8742 30.677C22.1208 30.677 23.7655 30.6702 23.7655 30.6542C23.7655 30.6405 23.7904 30.6313 23.822 30.6313C23.8537 30.6313 23.8785 30.6199 23.8785 30.6085C23.8785 30.5948 23.8988 30.5857 23.9237 30.5857C23.9485 30.5857 23.9689 30.5765 23.9689 30.5674C23.9689 30.556 23.996 30.5331 24.0321 30.5149C24.118 30.4692 24.1361 30.4532 24.2761 30.3116C24.3439 30.2431 24.3981 30.1723 24.3981 30.1586C24.3981 30.1426 24.4072 30.1289 24.4185 30.1289C24.4366 30.1289 24.5179 29.9736 24.5766 29.8251C24.5902 29.7909 24.6015 29.7315 24.6015 29.6949C24.6015 29.6561 24.6128 29.6264 24.6241 29.6264C24.6376 29.6264 24.6467 29.5328 24.6467 29.3889C24.6467 29.2541 24.6376 29.1422 24.6241 29.1354C24.6128 29.1285 24.6015 29.0851 24.6015 29.0417C24.6015 28.9983 24.5924 28.9641 24.5789 28.9641C24.5676 28.9641 24.5563 28.9435 24.5563 28.9184C24.5563 28.8933 24.5473 28.8545 24.5337 28.8316C24.5224 28.8111 24.4953 28.7517 24.4727 28.7014C24.4501 28.6512 24.4027 28.5758 24.3643 28.537C24.188 28.3451 24.0909 28.2561 24.0593 28.2561C24.048 28.2561 24.0367 28.2446 24.0367 28.2332C24.0367 28.2195 24.0163 28.2104 23.9915 28.2104C23.9666 28.2104 23.9463 28.2012 23.9463 28.1898C23.9463 28.1784 23.9169 28.1624 23.8785 28.1533C23.8424 28.1442 23.8062 28.1282 23.7994 28.1167C23.7904 28.1053 23.7565 28.0962 23.7204 28.0962C23.6842 28.0962 23.6481 28.0848 23.6413 28.0733C23.6322 28.0574 22.2925 28.0505 19.6965 28.0505H15.7676V26.7601V25.4697H19.3147C21.3729 25.4697 22.8799 25.4605 22.9025 25.4491C22.9228 25.4377 22.9996 25.4103 23.0719 25.3875C23.142 25.3646 23.2007 25.3372 23.2007 25.3281C23.2007 25.3189 23.2165 25.3098 23.2346 25.3098C23.2753 25.3098 23.334 25.2641 23.4922 25.102C23.6729 24.9215 23.743 24.8347 23.743 24.7982C23.743 24.7799 23.7497 24.7617 23.761 24.7571C23.7859 24.7457 23.8559 24.5241 23.8559 24.4556C23.8559 24.4236 23.8672 24.3962 23.8785 24.3962C23.8921 24.3962 23.9011 24.298 23.9011 24.145C23.9011 23.992 23.8921 23.8938 23.8785 23.8938C23.8672 23.8938 23.8559 23.8686 23.8559 23.8367C23.8559 23.7636 23.7836 23.5283 23.761 23.5283C23.752 23.5283 23.743 23.5101 23.743 23.4872C23.743 23.4644 23.7226 23.4324 23.6978 23.4141C23.6729 23.3959 23.6526 23.373 23.6526 23.3616C23.6526 23.3525 23.63 23.3205 23.6029 23.2931C23.5735 23.2634 23.5261 23.2086 23.4944 23.172C23.4628 23.1332 23.4018 23.083 23.3589 23.0578C23.3159 23.035 23.2617 22.9962 23.2369 22.9733C23.212 22.9528 23.1804 22.9345 23.1646 22.9345C23.1488 22.9345 23.1329 22.9277 23.1284 22.9162C23.1262 22.9071 23.0652 22.882 22.9951 22.8591C22.8776 22.8226 22.6246 22.8203 19.3192 22.8203H15.7676V21.5299V20.2395H19.6988C22.3038 20.2395 23.63 20.2326 23.63 20.2166C23.63 20.2029 23.6548 20.1938 23.6865 20.1938C23.7181 20.1938 23.761 20.1847 23.7836 20.1733C23.804 20.1595 23.865 20.1321 23.9192 20.1116C23.9711 20.0887 24.0141 20.0636 24.0141 20.0522C24.0141 20.0431 24.0299 20.0339 24.048 20.0339C24.0683 20.0339 24.1067 20.0111 24.1361 19.9814C24.1654 19.954 24.2219 19.8992 24.2649 19.8581C24.3801 19.7484 24.414 19.7005 24.5224 19.4675C24.5653 19.3784 24.6015 19.2734 24.6015 19.2368C24.6015 19.198 24.6128 19.1615 24.6241 19.1546C24.6376 19.1478 24.6467 19.0359 24.6467 18.9011C24.6467 18.7572 24.6376 18.6636 24.6241 18.6636C24.6128 18.6636 24.6015 18.6293 24.6015 18.5859C24.6015 18.5425 24.5924 18.4991 24.5789 18.4923C24.5676 18.4854 24.5563 18.4535 24.5563 18.4215C24.5563 18.3918 24.5473 18.3667 24.5337 18.3667C24.5224 18.3667 24.5111 18.3507 24.5111 18.3301C24.5111 18.2068 24.2129 17.8642 24.0095 17.7569C23.944 17.7226 23.8875 17.6861 23.883 17.6746C23.8785 17.6655 23.8559 17.6586 23.8311 17.6586C23.8085 17.6586 23.7881 17.6472 23.7881 17.6358C23.7881 17.6221 23.752 17.613 23.7068 17.613C23.6594 17.613 23.6322 17.6038 23.6413 17.5901C23.6503 17.5741 22.0553 17.5673 18.8742 17.5673C15.6931 17.5673 14.098 17.5741 14.107 17.5901Z" fill="#133115"/>
<path d="M48.6868 17.5901C48.6959 17.6038 48.671 17.613 48.6326 17.613C48.5941 17.613 48.5625 17.6221 48.5625 17.6358C48.5625 17.6472 48.5376 17.6586 48.506 17.6586C48.4743 17.6586 48.4495 17.6655 48.4495 17.6769C48.4495 17.686 48.411 17.7112 48.3658 17.734C48.2528 17.7865 48.1985 17.8208 48.1533 17.8687C48.133 17.8916 48.1081 17.9099 48.1013 17.9099C48.081 17.9099 48.0199 17.9692 48.0199 17.9898C48.0199 17.9966 48.0086 18.0149 47.9973 18.0309C47.9091 18.1359 47.8843 18.1702 47.8843 18.1862C47.8843 18.1953 47.8707 18.2182 47.8571 18.2341C47.8074 18.2867 47.7712 18.3643 47.7712 18.41C47.7712 18.4351 47.7622 18.4625 47.7486 18.4694C47.7373 18.4762 47.726 18.5059 47.7238 18.5333C47.7215 18.5607 47.7192 21.0865 47.7192 24.1444C47.7192 27.2023 47.7215 29.7281 47.7238 29.7555C47.726 29.7829 47.7373 29.8126 47.7486 29.8195C47.7622 29.8263 47.7712 29.8537 47.7712 29.8811C47.7712 29.9245 47.8526 30.0638 47.8888 30.0775C47.8978 30.0821 47.9069 30.1004 47.9069 30.1164C47.9069 30.1575 48.2415 30.4932 48.2822 30.4932C48.3002 30.4932 48.3138 30.5023 48.3138 30.516C48.3138 30.5274 48.3296 30.5389 48.3477 30.5389C48.3658 30.5389 48.3816 30.548 48.3816 30.5617C48.3816 30.5731 48.402 30.5845 48.4269 30.5845C48.4517 30.5845 48.4721 30.5937 48.4721 30.6074C48.4721 30.6188 48.4924 30.6302 48.515 30.6302C48.5399 30.6302 48.567 30.6393 48.5738 30.653C48.5919 30.6827 49.46 30.6827 49.4781 30.653C49.4849 30.6416 49.512 30.6302 49.5369 30.6302C49.5595 30.6302 49.5798 30.6234 49.5798 30.6119C49.5798 30.6028 49.607 30.5823 49.6431 30.5663C49.677 30.5526 49.7336 30.516 49.772 30.4886C49.8873 30.3973 50.1676 30.1095 50.1676 30.0775C50.1676 30.0616 50.1834 30.0273 50.2015 30.0045C50.2196 29.9793 50.2354 29.9405 50.2354 29.9177C50.2354 29.8948 50.2467 29.8766 50.2581 29.8766C50.2716 29.8766 50.2807 29.8515 50.2807 29.8218C50.2807 29.7898 50.292 29.7578 50.3033 29.751C50.3168 29.7441 50.3259 29.6802 50.3259 29.6117C50.3259 29.5432 50.3372 29.4883 50.3485 29.4883C50.3847 29.4883 50.3801 27.0059 50.344 26.9922C50.3281 26.9854 51.1397 26.9785 52.1503 26.9785C53.6446 26.9762 53.9905 26.9808 54.0154 27.0059C54.0312 27.0242 54.0764 27.0767 54.1126 27.1247C54.151 27.1726 54.2166 27.2503 54.2596 27.296C54.3025 27.3439 54.3794 27.4307 54.4291 27.4901C54.4789 27.5495 54.5715 27.6522 54.6326 27.7162C54.6959 27.7824 54.7773 27.8738 54.8134 27.9217C54.8519 27.9697 54.9536 28.0839 55.0395 28.1729C55.1277 28.2643 55.2272 28.3762 55.2633 28.4218C55.2995 28.4698 55.3832 28.5657 55.4487 28.6388C55.5663 28.7621 55.6884 28.8991 55.8489 29.0796C55.8873 29.1252 55.9732 29.2189 56.0342 29.2897C56.0975 29.3582 56.188 29.4632 56.2377 29.5226C56.2874 29.582 56.3801 29.6847 56.4412 29.751C56.5045 29.8172 56.5949 29.92 56.6446 29.9816C56.8752 30.258 57.2347 30.5845 57.3093 30.5845C57.3229 30.5845 57.3342 30.5937 57.3342 30.6074C57.3342 30.6188 57.359 30.6302 57.3907 30.6302C57.4223 30.6302 57.4472 30.6393 57.4472 30.653C57.4472 30.685 58.3447 30.685 58.3628 30.653C58.3696 30.6393 58.3967 30.6302 58.4216 30.6302C58.4442 30.6302 58.4645 30.6234 58.4645 30.6119C58.4645 30.6028 58.4985 30.58 58.5391 30.564C58.5776 30.5457 58.6273 30.5137 58.6454 30.4932C58.6635 30.4749 58.711 30.4384 58.7471 30.4155C58.7856 30.3904 58.8353 30.347 58.8602 30.3151C58.885 30.2831 58.9393 30.2237 58.98 30.1826C59.0184 30.1415 59.0523 30.0935 59.0523 30.0775C59.0523 30.0616 59.0682 30.0273 59.0862 30.0045C59.1043 29.9793 59.1202 29.9405 59.1202 29.9177C59.1202 29.8948 59.1315 29.8766 59.1428 29.8766C59.1563 29.8766 59.1654 29.8446 59.1654 29.8081C59.1654 29.7692 59.1767 29.7396 59.188 29.7396C59.2015 29.7396 59.2106 29.6893 59.2106 29.6277C59.2106 29.5637 59.2219 29.5066 59.2332 29.4998C59.2468 29.4929 59.2558 29.4404 59.2558 29.3856C59.2558 29.3308 59.2468 29.2782 59.2332 29.2714C59.2219 29.2645 59.2106 29.2074 59.2106 29.1458C59.2106 29.0841 59.2015 29.027 59.188 29.0202C59.1767 29.0133 59.1654 28.9768 59.1654 28.938C59.1654 28.9014 59.1563 28.8717 59.1428 28.8717C59.1315 28.8717 59.1156 28.8352 59.1066 28.7918C59.0998 28.7484 59.084 28.7119 59.0727 28.7119C59.0614 28.7119 59.0523 28.6982 59.0523 28.6799C59.0523 28.6616 59.0343 28.6319 59.0116 28.616C58.989 28.6 58.9461 28.552 58.9144 28.5086C58.885 28.4652 58.815 28.3807 58.7584 28.3214C58.7019 28.2643 58.6341 28.1843 58.6047 28.1455C58.5753 28.1067 58.4939 28.0153 58.4239 27.94C58.3538 27.8669 58.2543 27.7573 58.2046 27.6956C58.1548 27.634 58.0531 27.5198 57.9785 27.4398C57.9039 27.3622 57.8021 27.2503 57.7524 27.1909C57.7027 27.1338 57.6213 27.0402 57.5716 26.9854C57.4517 26.8529 57.2731 26.6542 57.1759 26.5446C57.133 26.4944 57.0629 26.419 57.0222 26.3756C56.9498 26.2957 56.9498 26.2934 56.9996 26.2774C57.0267 26.2706 57.0606 26.25 57.0764 26.234C57.0923 26.2203 57.1578 26.1724 57.2257 26.129C57.2912 26.0879 57.3613 26.0353 57.3816 26.0125C57.402 25.9897 57.4246 25.9714 57.4314 25.9714C57.4449 25.9714 57.5557 25.8755 57.6642 25.7704C57.6936 25.743 57.723 25.7202 57.7298 25.7202C57.7479 25.7202 58.0576 25.4073 58.0576 25.3891C58.0576 25.3822 58.0802 25.3502 58.1096 25.3205C58.2385 25.1767 58.2611 25.1493 58.2611 25.1356C58.2611 25.1287 58.2905 25.0945 58.3266 25.0602C58.3605 25.0282 58.3967 24.978 58.4058 24.9483C58.4148 24.9209 58.4329 24.8981 58.4442 24.8981C58.4555 24.8981 58.4645 24.8844 58.4645 24.8684C58.4645 24.8524 58.4849 24.8158 58.5098 24.7884C58.5346 24.761 58.555 24.7291 58.555 24.7154C58.555 24.7039 58.564 24.6925 58.5731 24.6925C58.5844 24.6925 58.6318 24.6126 58.6816 24.5144C58.7291 24.4185 58.7765 24.334 58.7856 24.3317C58.7969 24.3271 58.8037 24.2974 58.8037 24.2677C58.8037 24.2381 58.8127 24.2129 58.824 24.2129C58.8443 24.2129 58.8783 24.1262 58.8737 24.0828C58.8715 24.0691 58.8805 24.0508 58.8941 24.0417C58.9054 24.0348 58.9167 24.0074 58.9167 23.9823C58.9167 23.9594 58.928 23.9389 58.9393 23.9389C58.9529 23.9389 58.9619 23.9069 58.9619 23.8704C58.9619 23.8316 58.9732 23.8019 58.9845 23.8019C58.9981 23.8019 59.0071 23.7767 59.0071 23.7448C59.0071 23.7128 59.0184 23.6877 59.0297 23.6877C59.0433 23.6877 59.0523 23.6557 59.0523 23.6192C59.0523 23.5803 59.0614 23.5507 59.0704 23.5507C59.0908 23.5507 59.136 23.2926 59.1563 23.0642C59.1631 22.9934 59.1789 22.934 59.1902 22.934C59.2015 22.934 59.2106 22.8427 59.2106 22.7308C59.2106 22.6166 59.2219 22.5184 59.2332 22.5116C59.2626 22.4933 59.2626 22.0594 59.2355 22.0297C59.2242 22.0183 59.2083 21.9155 59.2015 21.8036C59.1857 21.5181 59.1066 21.0157 59.0682 20.9792C59.0591 20.97 59.0523 20.9335 59.0523 20.8992C59.0523 20.865 59.0433 20.8285 59.0297 20.8216C59.0184 20.8148 59.0071 20.7828 59.0071 20.7508C59.0071 20.7211 58.9981 20.696 58.9845 20.696C58.9732 20.696 58.9619 20.6777 58.9619 20.6526C58.9619 20.6298 58.9461 20.5795 58.928 20.5453C58.9099 20.5087 58.8941 20.4631 58.8941 20.4425C58.8941 20.3968 58.8421 20.2849 58.8217 20.2849C58.8104 20.2849 58.8037 20.2644 58.8037 20.2393C58.8037 20.2141 58.7946 20.1936 58.7856 20.1936C58.7743 20.1936 58.7539 20.157 58.7358 20.1136C58.7177 20.0703 58.6974 20.0337 58.6861 20.0337C58.6771 20.0337 58.668 20.0132 58.668 19.9903C58.668 19.9652 58.6522 19.9309 58.6341 19.9104C58.616 19.8921 58.6002 19.867 58.6002 19.8533C58.6002 19.8396 58.5911 19.8282 58.5821 19.8282C58.5708 19.8282 58.5482 19.8008 58.5301 19.7642C58.512 19.73 58.4804 19.682 58.4578 19.6569C58.4352 19.6318 58.4125 19.5884 58.4058 19.561C58.3967 19.5313 58.3832 19.5153 58.3719 19.5222C58.3605 19.529 58.3515 19.5244 58.3515 19.5107C58.3515 19.4719 58.0373 19.102 57.8361 18.9056C57.5693 18.6452 57.5399 18.6178 57.5241 18.6178C57.515 18.6178 57.4924 18.5995 57.4721 18.5767C57.4178 18.5173 57.2731 18.4123 57.246 18.4123C57.2324 18.4123 57.2211 18.4009 57.2211 18.3894C57.2211 18.3757 57.2098 18.3666 57.1963 18.3666C57.1804 18.3666 57.1533 18.3483 57.133 18.3255C57.1126 18.3049 57.0538 18.2661 57.0018 18.241C56.9476 18.2159 56.9046 18.1885 56.9046 18.177C56.9046 18.1679 56.8888 18.1611 56.8707 18.1611C56.8526 18.1611 56.8368 18.1496 56.8368 18.1382C56.8368 18.1245 56.8165 18.1154 56.7916 18.1154C56.7667 18.1154 56.7464 18.104 56.7464 18.0925C56.7464 18.0788 56.7306 18.0697 56.7125 18.0697C56.6944 18.0697 56.6786 18.0606 56.6786 18.0492C56.6786 18.0377 56.6469 18.0195 56.6062 18.0126C56.5678 18.0035 56.5 17.9761 56.4593 17.9532C56.4163 17.9281 56.3688 17.9099 56.3507 17.9099C56.3327 17.9099 56.3168 17.8984 56.3168 17.887C56.3168 17.8733 56.2965 17.8642 56.2716 17.8642C56.2468 17.8642 56.2264 17.855 56.2264 17.8459C56.2264 17.8299 56.0817 17.7911 55.8941 17.7591C55.8534 17.75 55.8195 17.7363 55.8195 17.7249C55.8195 17.7134 55.7833 17.7043 55.7403 17.7043C55.6974 17.7043 55.6612 17.6929 55.6612 17.6815C55.6612 17.6678 55.616 17.6586 55.5595 17.6586C55.503 17.6586 55.4578 17.6472 55.4578 17.6358C55.4578 17.6221 55.3967 17.613 55.3221 17.613C55.2475 17.613 55.1865 17.6038 55.1865 17.5901C55.1865 17.5741 54.0855 17.5673 51.9287 17.5673C49.7652 17.5673 48.6778 17.5741 48.6868 17.5901ZM54.7117 20.2598C54.7117 20.2689 54.7999 20.2849 54.9107 20.2918C55.0893 20.3055 55.252 20.3443 55.2905 20.3831C55.2995 20.3923 55.3266 20.3991 55.3492 20.3991C55.3718 20.3991 55.3899 20.4082 55.3899 20.4219C55.3899 20.4334 55.4103 20.4448 55.4352 20.4448C55.46 20.4448 55.4804 20.4539 55.4804 20.4676C55.4804 20.479 55.4962 20.4905 55.5143 20.4905C55.5324 20.4905 55.5482 20.4996 55.5482 20.5133C55.5482 20.5247 55.5685 20.5361 55.5911 20.5361C55.616 20.5361 55.6499 20.5521 55.6703 20.5704C55.6884 20.5887 55.711 20.6046 55.7177 20.6046C55.7268 20.6046 55.7607 20.6343 55.7923 20.6686C55.8263 20.7051 55.8873 20.7531 55.928 20.7759C55.9664 20.801 56.0071 20.8376 56.0139 20.8604C56.0207 20.8833 56.0342 20.9015 56.0456 20.9015C56.0569 20.9015 56.0704 20.9221 56.0795 20.9449C56.0862 20.97 56.1111 20.9952 56.1337 21.0043C56.1541 21.0112 56.1902 21.0568 56.2128 21.1071C56.2355 21.1573 56.2626 21.1984 56.2739 21.1984C56.2852 21.1984 56.2942 21.2144 56.2942 21.2327C56.2942 21.2509 56.3055 21.2669 56.3168 21.2669C56.3304 21.2669 56.3394 21.2875 56.3394 21.3126C56.3394 21.3377 56.3485 21.3583 56.3598 21.3583C56.3711 21.3583 56.3869 21.3948 56.3937 21.4382C56.4027 21.4816 56.4186 21.5181 56.4299 21.5181C56.4434 21.5181 56.4525 21.5433 56.4525 21.5729C56.4525 21.6049 56.4615 21.6346 56.4728 21.6415C56.5316 21.678 56.622 22.4773 56.5678 22.4773C56.552 22.4773 56.5429 22.5253 56.5429 22.6029C56.5429 22.6714 56.5339 22.7285 56.5203 22.7285C56.509 22.7285 56.4977 22.7651 56.4977 22.8084C56.4977 22.8518 56.4887 22.8884 56.4751 22.8884C56.4638 22.8884 56.4525 22.9135 56.4525 22.9455C56.4525 22.9774 56.4434 23.0026 56.4321 23.0026C56.4208 23.0026 56.405 23.0437 56.396 23.0939C56.3869 23.1442 56.3711 23.1853 56.3598 23.1853C56.3485 23.1853 56.3394 23.2058 56.3394 23.2309C56.3394 23.2561 56.3304 23.2766 56.3168 23.2766C56.3055 23.2766 56.2942 23.288 56.2942 23.2994C56.2942 23.3131 56.2739 23.3451 56.249 23.3725C56.2241 23.3999 56.2038 23.4365 56.2038 23.4525C56.2038 23.4707 56.1948 23.4776 56.1812 23.4707C56.1676 23.4639 56.1654 23.473 56.1722 23.4913C56.1789 23.5118 56.1744 23.5278 56.1631 23.5278C56.1292 23.5278 56.0297 23.6306 56.0139 23.6831C56.0071 23.7059 55.9664 23.7425 55.928 23.7676C55.8873 23.7904 55.8263 23.8384 55.7923 23.8749C55.7607 23.9092 55.7268 23.9389 55.7177 23.9389C55.711 23.9389 55.6884 23.9549 55.6703 23.9731C55.6499 23.9914 55.616 24.0074 55.5911 24.0074C55.5685 24.0074 55.5482 24.0165 55.5482 24.0302C55.5482 24.0417 55.5324 24.0531 55.5143 24.0531C55.4962 24.0531 55.4804 24.0622 55.4804 24.0759C55.4804 24.0873 55.46 24.0987 55.4352 24.0987C55.4103 24.0987 55.3899 24.1079 55.3899 24.1216C55.3899 24.133 55.3651 24.1444 55.3334 24.1444C55.3018 24.1444 55.2769 24.1513 55.2769 24.1627C55.2769 24.1947 55.0847 24.2403 54.8994 24.2518C54.7954 24.2586 54.7117 24.2746 54.7117 24.2837C54.7117 24.2952 53.7238 24.3043 52.5143 24.3043C50.8052 24.3043 50.3236 24.2974 50.344 24.2769C50.3824 24.2381 50.3824 20.3055 50.344 20.2667C50.3236 20.2461 50.8052 20.2393 52.5143 20.2393C53.7238 20.2393 54.7117 20.2484 54.7117 20.2598Z" fill="#133115"/>
<path d="M62.1017 17.5901C62.1017 17.6015 62.0723 17.613 62.0339 17.613C61.9977 17.613 61.9661 17.6221 61.9661 17.6358C61.9661 17.6472 61.9412 17.6586 61.9096 17.6586C61.878 17.6586 61.8531 17.6655 61.8531 17.6746C61.8531 17.686 61.8305 17.7043 61.8011 17.718C61.6587 17.7888 61.5842 17.8413 61.4644 17.9624C61.3921 18.0332 61.3333 18.104 61.3333 18.12C61.3333 18.1337 61.313 18.1633 61.2859 18.1862C61.261 18.209 61.2452 18.2387 61.2542 18.2501C61.261 18.2638 61.2565 18.2752 61.2452 18.2752C61.2316 18.2752 61.2203 18.2958 61.2203 18.3209C61.2203 18.346 61.2113 18.3666 61.1977 18.3666C61.1864 18.3666 61.1751 18.3917 61.1751 18.4214C61.1751 18.4534 61.1661 18.4853 61.1525 18.4922C61.1412 18.4991 61.1299 18.5424 61.1299 18.5858C61.1299 18.6292 61.1186 18.6635 61.1073 18.6635C61.0802 18.6635 61.0915 29.534 61.1186 29.687C61.1277 29.7418 61.1435 29.7852 61.1548 29.7852C61.1661 29.7852 61.1751 29.8149 61.1751 29.8537C61.1751 29.8903 61.1842 29.9223 61.1955 29.9223C61.2068 29.9223 61.2226 29.9519 61.2316 29.9885C61.2384 30.0227 61.2655 30.0753 61.2881 30.1004C61.313 30.1278 61.3333 30.1575 61.3333 30.1666C61.3333 30.1849 61.5412 30.4064 61.6136 30.4635C61.6316 30.4795 61.6587 30.4932 61.6723 30.4932C61.6836 30.4932 61.6949 30.5023 61.6949 30.516C61.6949 30.5274 61.7152 30.5389 61.7401 30.5389C61.765 30.5389 61.7853 30.548 61.7853 30.5617C61.7853 30.5731 61.8056 30.5845 61.8305 30.5845C61.8554 30.5845 61.8757 30.5937 61.8757 30.6074C61.8757 30.6188 61.896 30.6302 61.9209 30.6302C61.9457 30.6302 61.9661 30.6393 61.9661 30.653C61.9661 30.685 71.7422 30.685 71.7625 30.653C71.7693 30.6393 71.801 30.6302 71.8326 30.6302C71.862 30.6302 71.8868 30.6188 71.8868 30.6074C71.8868 30.5937 71.9004 30.5845 71.9162 30.5845C71.932 30.5845 71.9682 30.564 71.9953 30.5389C72.0224 30.5137 72.0541 30.4932 72.0654 30.4932C72.097 30.4932 72.4021 30.1757 72.4179 30.1255C72.4269 30.1027 72.4428 30.0821 72.4541 30.0821C72.4654 30.0821 72.4744 30.0616 72.4744 30.0364C72.4744 30.0113 72.4857 29.9908 72.497 29.9908C72.5106 29.9908 72.5196 29.9748 72.5196 29.9565C72.5196 29.9382 72.5309 29.9223 72.5422 29.9223C72.5558 29.9223 72.5648 29.8903 72.5648 29.8515C72.5648 29.8149 72.5738 29.7875 72.5851 29.7944C72.5964 29.8035 72.6123 29.7213 72.6213 29.614C72.6416 29.3879 72.6145 28.9334 72.5851 28.954C72.5738 28.9608 72.5648 28.9403 72.5648 28.9083C72.5648 28.8763 72.5558 28.8489 72.5422 28.8489C72.5309 28.8489 72.5196 28.8283 72.5196 28.8032C72.5196 28.7781 72.5106 28.7576 72.497 28.7576C72.4857 28.7576 72.4744 28.737 72.4744 28.7119C72.4744 28.6868 72.4654 28.6662 72.4563 28.6662C72.4473 28.6662 72.4224 28.6388 72.4021 28.6023C72.3524 28.5178 72.1942 28.3465 72.1671 28.3465C72.1558 28.3465 72.1309 28.3259 72.1128 28.3008C72.0947 28.2757 72.0676 28.2551 72.0518 28.2551C72.036 28.2551 72.0224 28.2483 72.0224 28.2369C72.0224 28.2277 71.9885 28.2072 71.9501 28.1889C71.9094 28.1729 71.8462 28.1432 71.81 28.1272C71.7738 28.109 71.7196 28.0953 71.6902 28.0953C71.6631 28.0953 71.6383 28.0839 71.6383 28.0724C71.6383 28.0564 70.3095 28.0496 67.6948 28.0496H63.7514V26.7593V25.469H67.3219C69.3942 25.469 70.8925 25.4599 70.8925 25.4484C70.8925 25.437 70.9264 25.4233 70.9671 25.4165C71.0665 25.4005 71.2089 25.3479 71.2089 25.3274C71.2089 25.316 71.2247 25.3091 71.2428 25.3091C71.2609 25.3091 71.2767 25.3 71.2767 25.2909C71.2767 25.2817 71.3061 25.2543 71.3445 25.2338C71.4349 25.179 71.6541 24.9551 71.6722 24.8981C71.6789 24.8729 71.697 24.8524 71.7083 24.8524C71.7196 24.8524 71.7287 24.8341 71.7287 24.8113C71.7287 24.7907 71.749 24.7473 71.7738 24.7154C71.7987 24.6834 71.819 24.6354 71.819 24.608C71.819 24.5806 71.8303 24.5509 71.8416 24.5441C71.8552 24.5372 71.8642 24.5007 71.8642 24.4641C71.8642 24.4276 71.8755 24.3911 71.8868 24.3842C71.9004 24.3774 71.9094 24.27 71.9094 24.1421C71.9094 24.0074 71.9004 23.9161 71.8868 23.9161C71.8755 23.9161 71.8642 23.8749 71.8642 23.8247C71.8642 23.7745 71.8552 23.7334 71.8416 23.7334C71.8303 23.7334 71.819 23.7014 71.819 23.6648C71.819 23.626 71.81 23.5963 71.7964 23.5963C71.7851 23.5963 71.7738 23.5803 71.7738 23.5621C71.7738 23.5438 71.7648 23.5278 71.7513 23.5278C71.74 23.5278 71.7287 23.5118 71.7287 23.4913C71.7287 23.473 71.7151 23.441 71.7015 23.4251C71.6405 23.3565 71.6157 23.3246 71.6157 23.3109C71.6157 23.2857 71.4213 23.1008 71.349 23.0597C71.3083 23.0345 71.2767 23.0071 71.2767 22.998C71.2767 22.9889 71.2609 22.9797 71.2428 22.9797C71.2247 22.9797 71.2089 22.9683 71.2089 22.9569C71.2089 22.9432 71.1885 22.934 71.1637 22.934C71.1388 22.934 71.1185 22.9249 71.1185 22.9158C71.1185 22.9066 71.0597 22.8815 70.9874 22.8587C70.8654 22.8221 70.5987 22.8199 67.3039 22.8199H63.7514V21.5296V20.2393H67.6948C70.3095 20.2393 71.6383 20.2324 71.6383 20.2164C71.6383 20.2027 71.6699 20.1936 71.7061 20.1936C71.7445 20.1936 71.7738 20.1822 71.7738 20.1707C71.7738 20.157 71.7987 20.1479 71.8303 20.1479C71.862 20.1479 71.8868 20.1388 71.8868 20.1273C71.8868 20.1159 71.9185 20.0999 71.9546 20.0908C71.9931 20.0817 72.0224 20.0657 72.0224 20.0543C72.0224 20.0429 72.0315 20.0337 72.045 20.0337C72.0812 20.0337 72.3027 19.8259 72.3614 19.7368C72.3795 19.7094 72.4134 19.6615 72.436 19.6341C72.4563 19.6044 72.4744 19.5701 72.4744 19.5564C72.4744 19.5427 72.4857 19.5313 72.497 19.5313C72.5106 19.5313 72.5196 19.5107 72.5196 19.4856C72.5196 19.4605 72.5309 19.4399 72.5422 19.4399C72.5558 19.4399 72.5648 19.4125 72.5648 19.3806C72.5648 19.3486 72.5738 19.328 72.5851 19.3349C72.5964 19.344 72.6123 19.2504 72.6213 19.1316C72.6394 18.8896 72.6168 18.4808 72.5851 18.4808C72.5738 18.4808 72.5648 18.4557 72.5648 18.4237C72.5648 18.3917 72.5558 18.3666 72.5422 18.3666C72.5309 18.3666 72.5196 18.346 72.5196 18.3209C72.5196 18.2958 72.5106 18.2752 72.497 18.2752C72.4857 18.2752 72.4744 18.2593 72.4744 18.241C72.4744 18.2227 72.4654 18.2067 72.4541 18.2067C72.4428 18.2067 72.4269 18.1885 72.4179 18.1633C72.4111 18.1405 72.384 18.0971 72.3614 18.0674C72.2801 17.9692 72.1806 17.8642 72.1671 17.8642C72.1603 17.8642 72.1332 17.8436 72.106 17.8185C72.0789 17.7911 72.0337 17.766 72.0066 17.7591C71.9772 17.75 71.9546 17.7363 71.9546 17.7249C71.9546 17.7134 71.9343 17.7043 71.9094 17.7043C71.8846 17.7043 71.8642 17.6929 71.8642 17.6815C71.8642 17.6678 71.8439 17.6586 71.819 17.6586C71.7942 17.6586 71.7738 17.6472 71.7738 17.6358C71.7738 17.6221 71.7445 17.613 71.7061 17.613C71.6699 17.613 71.6383 17.6015 71.6383 17.5901C71.6383 17.5741 70.0338 17.5673 66.87 17.5673C63.7062 17.5673 62.1017 17.5741 62.1017 17.5901Z" fill="#133115"/>
<path d="M26.0403 18.9008C26.0336 18.9122 26.002 18.9235 25.9704 18.9235C25.941 18.9235 25.9162 18.9326 25.9162 18.9461C25.9162 18.9575 25.8959 18.9688 25.8733 18.9688C25.8259 18.9688 25.6837 19.0368 25.6724 19.064C25.6679 19.0753 25.6543 19.0821 25.6431 19.0821C25.616 19.0821 25.4196 19.2725 25.4196 19.2997C25.4196 19.311 25.3993 19.3359 25.3744 19.3541C25.3496 19.3722 25.3293 19.3994 25.3293 19.4153C25.3293 19.4311 25.318 19.4447 25.3045 19.4447C25.2932 19.4447 25.2887 19.4538 25.2954 19.4674C25.3022 19.4787 25.2999 19.4901 25.2887 19.4901C25.2796 19.4901 25.2548 19.5422 25.239 19.6056C25.2209 19.6668 25.1984 19.7235 25.1893 19.7303C25.1623 19.7484 25.1668 20.3694 25.1939 20.3852C25.2074 20.392 25.2164 20.4283 25.2164 20.4668C25.2164 20.5031 25.2255 20.5325 25.2367 20.5325C25.2571 20.5325 25.2909 20.6187 25.2864 20.6526C25.2841 20.6708 25.3135 20.707 25.4738 20.877C25.5302 20.9382 25.5821 20.9858 25.5889 20.9858C25.5957 20.9858 25.625 21.0062 25.6521 21.0311C25.6792 21.0583 25.7243 21.0832 25.7514 21.09C25.7807 21.0991 25.8033 21.1127 25.8033 21.124C25.8033 21.1354 25.8236 21.1444 25.8462 21.1444C25.871 21.1444 25.8981 21.1535 25.9049 21.1671C25.9117 21.1784 25.9433 21.1898 25.9726 21.1898C26.002 21.1898 26.029 21.2011 26.0336 21.2124C26.0448 21.2464 34.5006 21.2464 34.5119 21.2124C34.5164 21.2011 34.5503 21.1898 34.5864 21.1898C34.6225 21.1898 34.6518 21.1784 34.6518 21.1671C34.6518 21.1535 34.6767 21.1444 34.7083 21.1444C34.7399 21.1444 34.7647 21.1354 34.7647 21.124C34.7647 21.1127 34.7873 21.0991 34.8166 21.09C34.8437 21.0832 34.8888 21.0583 34.9159 21.0311C34.943 21.0062 34.9724 20.9858 34.9791 20.9858C34.9995 20.9858 35.1484 20.8317 35.1484 20.8113C35.1484 20.8 35.1687 20.7773 35.1936 20.7592C35.2184 20.741 35.2387 20.7138 35.2387 20.7002C35.2387 20.6844 35.2636 20.6277 35.2952 20.5756C35.3268 20.5212 35.3516 20.4532 35.3516 20.426C35.3516 20.3988 35.3629 20.3694 35.3742 20.3626C35.3877 20.3535 35.3967 20.2221 35.3967 20.043C35.3967 19.8549 35.3877 19.7393 35.3742 19.7393C35.3629 19.7393 35.3516 19.7144 35.3516 19.685C35.3516 19.6532 35.3426 19.6215 35.329 19.6147C35.3177 19.6079 35.3064 19.5762 35.3064 19.5444C35.3064 19.515 35.2974 19.4901 35.2861 19.4901C35.2748 19.4901 35.2568 19.4674 35.2478 19.4379C35.2387 19.4107 35.2139 19.3722 35.1913 19.3518C35.1665 19.3314 35.1484 19.3065 35.1484 19.2952C35.1484 19.2725 34.9972 19.1275 34.9746 19.1275C34.9679 19.1275 34.9453 19.1093 34.925 19.0867C34.9046 19.0663 34.8482 19.03 34.7986 19.0051C34.7489 18.9824 34.6902 18.9552 34.6699 18.9439C34.6473 18.9326 34.6089 18.9235 34.5864 18.9235C34.5615 18.9235 34.5345 18.9122 34.5277 18.9008C34.5187 18.885 33.0785 18.8782 30.284 18.8782C27.4895 18.8782 26.0494 18.885 26.0403 18.9008Z" fill="#92B774"/>
<path d="M30.3715 21.7736C30.0961 21.8151 29.8092 21.9768 29.6394 22.1801C29.5361 22.3071 29.4122 22.5705 29.3846 22.7229C29.3686 22.8061 29.364 24.0673 29.3663 26.3494C29.3732 29.4054 29.3778 29.8535 29.4076 29.909C29.4259 29.9459 29.4489 29.9737 29.4604 29.9737C29.4695 29.9737 29.4764 29.9945 29.4764 30.0199C29.4764 30.0453 29.4879 30.0661 29.4994 30.0661C29.5132 30.0661 29.5223 30.0822 29.5223 30.1007C29.5223 30.1608 29.8482 30.468 29.9928 30.5419C30.3347 30.7221 30.7524 30.7221 31.0944 30.5419C31.2389 30.468 31.5993 30.1261 31.574 30.0868C31.5671 30.0753 31.574 30.0661 31.5855 30.0661C31.5993 30.0661 31.6107 30.0453 31.6107 30.0199C31.6107 29.9945 31.6199 29.9737 31.6291 29.9737C31.6383 29.9737 31.6658 29.9159 31.6865 29.8466C31.7232 29.7265 31.7255 29.4539 31.7255 26.2802C31.7255 24.0904 31.7163 22.7968 31.7025 22.7183C31.6727 22.5543 31.5442 22.2933 31.4271 22.1593C31.177 21.8729 30.7501 21.7181 30.3715 21.7736Z" fill="#92B774"/>
<path fill-rule="evenodd" clip-rule="evenodd" d="M26.9166 30.8704C27.0776 30.8188 27.4066 30.7469 27.6988 30.6998C27.9082 30.6662 28.7019 30.6706 28.9434 30.7066C29.4081 30.7761 29.6911 30.8524 30.096 31.0163C30.961 31.3641 31.6604 32.006 31.9986 32.7601C32.1597 33.117 32.2632 33.7297 32.2494 34.2459C32.2436 34.4302 32.2431 34.5139 32.2226 34.5924C32.202 34.6716 32.1612 34.7456 32.0745 34.9125C32.0101 35.0381 31.8353 35.2357 31.6903 35.3501C31.3544 35.6127 30.9656 35.7047 30.471 35.6374C30.1673 35.5947 29.9281 35.4758 29.7003 35.2536L29.5278 35.0853L29.3621 35.2446C29.1735 35.4242 28.9181 35.5656 28.6673 35.6262C28.5109 35.6643 28.2164 35.6598 27.9519 35.6172C27.708 35.5768 27.3813 35.3905 27.1881 35.1795L27.1029 35.0875L26.981 35.2065C26.6451 35.5342 26.2908 35.6576 25.7732 35.6262C25.5132 35.6105 25.3499 35.5633 25.1359 35.4466C24.7793 35.2514 24.5286 34.9237 24.4181 34.5175C24.3721 34.3491 24.3744 33.5479 24.4204 33.3324C24.6643 32.1901 25.5638 31.3013 26.9166 30.8704ZM31.1474 32.7467C30.6942 31.9903 29.8545 31.4809 28.8261 31.3372C28.6098 31.308 28.0761 31.2968 27.9289 31.3193C27.5193 31.3799 27.3698 31.4113 27.1375 31.4853C26.3276 31.7457 25.7088 32.2462 25.3775 32.906C25.2625 33.1327 25.1451 33.4783 25.1451 33.5905C25.1428 33.622 25.1221 33.705 25.0968 33.7723C24.9956 34.0506 24.9979 34.2908 25.1083 34.5242C25.2234 34.7711 25.4718 34.9506 25.7755 35.0112C26.0493 35.0628 26.4289 34.9125 26.6037 34.6768C26.7556 34.4748 26.7763 34.3671 26.7786 33.7768C26.7786 33.3728 26.7855 33.2404 26.8108 33.1933C26.9327 32.9644 27.2709 32.9621 27.3882 33.1888C27.4066 33.227 27.4204 33.4245 27.4296 33.7993C27.4434 34.2796 27.4503 34.3693 27.4917 34.4748C27.7195 35.0651 28.5224 35.2222 28.9503 34.7576C29.1689 34.5197 29.2172 34.32 29.2172 33.6489C29.2172 33.2157 29.2333 33.1619 29.3897 33.0901C29.5232 33.0272 29.6612 33.0519 29.767 33.1529L29.8499 33.2337L29.8614 33.8015C29.8752 34.4165 29.8844 34.4591 30.027 34.6633C30.1972 34.9102 30.4457 35.0381 30.7586 35.0381C30.9311 35.0381 30.9725 35.0292 31.1037 34.9663C31.336 34.8586 31.4833 34.7037 31.5661 34.486C31.6167 34.3514 31.619 34.2683 31.5868 34.0372C31.5201 33.5905 31.3452 33.0743 31.1474 32.7467ZM43.1095 30.7063C43.0276 30.719 42.9382 30.7348 42.8864 30.7439L42.8566 30.7491C42.8198 30.7559 42.7577 30.7671 42.7186 30.7739C42.5186 30.8077 42.1024 30.9496 41.8104 31.0848C40.7895 31.558 40.1021 32.3805 39.8905 33.3765C39.8354 33.6379 39.8445 34.359 39.9066 34.564C40.04 35.0079 40.4148 35.4203 40.7964 35.5442C41.0287 35.6186 41.2954 35.6479 41.5529 35.6276C41.93 35.5961 42.1737 35.4879 42.4312 35.24L42.5669 35.1071L42.6818 35.222C42.8037 35.3437 43.0497 35.5104 43.144 35.533C43.1762 35.5397 43.213 35.5532 43.2245 35.5623C43.2383 35.5713 43.3141 35.5961 43.3969 35.6186C43.5901 35.6704 43.9281 35.6727 44.1327 35.6208C44.5006 35.5262 44.6247 35.4609 44.8455 35.249L44.9972 35.1003L45.1214 35.231C45.3168 35.4361 45.4571 35.5149 45.7629 35.5893C45.9928 35.6456 46.0595 35.6524 46.2434 35.6434C46.3607 35.6366 46.5515 35.6096 46.6688 35.5848C46.7838 35.5578 46.901 35.533 46.9263 35.5285C47.0068 35.5104 47.2804 35.2919 47.3977 35.1499C47.5149 35.0079 47.6207 34.8164 47.6828 34.6316C47.7265 34.5009 47.7333 33.9376 47.6943 33.6582C47.6069 33.0317 47.4942 32.7073 47.2275 32.3197C46.7838 31.673 46.1101 31.1885 45.2593 30.9023C45.0225 30.8235 44.7811 30.7671 44.3856 30.6973C44.1994 30.6657 43.3279 30.6725 43.1095 30.7063ZM44.2178 31.3259C44.3925 31.3485 44.8225 31.4431 44.9374 31.4814C45.0271 31.513 45.0754 31.5265 45.0938 31.5288C45.103 31.531 45.1329 31.5468 45.1628 31.5648C45.1904 31.5828 45.2133 31.5918 45.2133 31.5851C45.2133 31.5626 45.6594 31.7946 45.7146 31.8442C45.7422 31.8713 45.7652 31.8848 45.7652 31.878C45.7652 31.8532 46.0503 32.0786 46.1928 32.216C46.4848 32.4999 46.6964 32.8334 46.8458 33.2526C47.0114 33.71 47.0367 33.8227 47.0689 34.2373C47.0804 34.3973 47.0758 34.4221 47.0114 34.5528C46.9102 34.7646 46.8021 34.8727 46.5975 34.9696C46.432 35.0485 46.4067 35.053 46.2135 35.053C46.0411 35.0507 45.9836 35.0417 45.8755 34.9944C45.7307 34.9291 45.5559 34.7826 45.4778 34.6609C45.3513 34.4581 45.3421 34.4176 45.3283 33.8114L45.3168 33.2413L45.234 33.1602C45.0846 33.0137 44.8386 33.0362 44.7305 33.2075C44.6891 33.2728 44.6845 33.3179 44.6845 33.6604C44.6845 34.3522 44.6224 34.5888 44.381 34.8096C44.0039 35.1544 43.3969 35.1116 43.0888 34.715C42.9325 34.5167 42.9164 34.4311 42.898 33.8024C42.8842 33.2548 42.8819 33.2368 42.8267 33.1534C42.7048 32.9686 42.4335 32.9777 42.3002 33.1714C42.2519 33.2413 42.2473 33.2728 42.2473 33.5658C42.245 34.35 42.2427 34.3657 42.1622 34.5302C41.9944 34.8772 41.6265 35.0688 41.2494 35.0057C41.1045 34.9809 40.8677 34.8908 40.8677 34.8592C40.8677 34.8479 40.8562 34.8412 40.8401 34.8412C40.7918 34.8412 40.6539 34.6744 40.5849 34.5257C40.4837 34.3184 40.4722 34.0818 40.5504 33.8227C40.5826 33.7213 40.6332 33.5387 40.6608 33.4216C40.8792 32.5157 41.5943 31.8082 42.6198 31.4814C42.8474 31.4093 43.0014 31.3778 43.3969 31.3192C43.5234 31.2989 44.0476 31.3057 44.2178 31.3259ZM34.7396 29.3259C34.7802 29.2669 34.8571 29.2034 34.9271 29.1649L35.0446 29.1036H35.9305C36.8096 29.1036 36.8142 29.1036 36.9272 29.1581C37.1938 29.2828 37.3091 29.6072 37.1735 29.8613C37.1509 29.9044 37.0198 30.07 36.8842 30.2288L36.6401 30.5146L36.656 30.6417C36.6808 30.8481 36.7328 31.0001 36.8277 31.143C37.0853 31.5309 37.6096 31.794 37.9645 31.7147C38.1769 31.667 38.2515 31.5513 38.2854 31.2133C38.3034 31.0205 38.3554 30.9048 38.4707 30.8004C38.6266 30.6598 38.8345 30.6303 39.0289 30.7233C39.1667 30.7868 39.2255 30.8504 39.291 30.9955C39.334 31.0931 39.3362 31.1294 39.3227 31.3245C39.2933 31.7782 39.1577 32.1026 38.891 32.3634C38.5791 32.6674 38.2266 32.7945 37.7543 32.7718C37.4447 32.7582 37.3249 32.7287 36.9046 32.5585C36.439 32.3748 36.1836 32.1842 36.0006 31.8893C35.9622 31.8281 35.9283 31.7804 35.9215 31.7804C35.9147 31.7804 35.8808 31.8281 35.8447 31.8848C35.6548 32.1865 35.4062 32.3725 34.9384 32.5585C34.5181 32.7287 34.3983 32.7582 34.0887 32.7718C33.6164 32.7945 33.2638 32.6674 32.952 32.3634C32.6853 32.1026 32.5497 31.7782 32.5203 31.3245C32.5068 31.1294 32.509 31.0931 32.552 30.9955C32.6175 30.8504 32.6763 30.7868 32.8141 30.7233C33.0085 30.6303 33.2164 30.6598 33.3723 30.8004C33.4876 30.9048 33.5395 31.0205 33.5576 31.2133C33.5915 31.5513 33.6661 31.667 33.8785 31.7147C34.2333 31.794 34.7576 31.5309 35.0153 31.143C35.1147 30.9955 35.1644 30.8435 35.187 30.6348L35.2006 30.4987L34.9723 30.2152C34.6718 29.8431 34.6492 29.8 34.6605 29.5891C34.6672 29.4484 34.6785 29.4099 34.7396 29.3259ZM40.8811 21.7735C40.6102 21.8151 40.3281 21.9768 40.1611 22.18C40.0617 22.3047 39.9421 22.561 39.8947 22.755C39.8586 22.9051 39.8564 23.1776 39.8541 26.3391C39.8541 29.0479 39.8609 29.7684 39.8834 29.7915C39.897 29.8053 39.9105 29.8423 39.9105 29.8723C39.9105 29.9023 39.9218 29.9254 39.9331 29.9254C39.9466 29.9254 39.9557 29.9416 39.9557 29.9601C39.9557 29.9809 39.9647 30.0086 39.9782 30.0247C40.3416 30.4843 40.5086 30.6021 40.8946 30.6644C41.2738 30.7268 41.6981 30.5536 41.9532 30.2349C42.057 30.1079 42.1676 29.8977 42.1676 29.8331C42.1676 29.8077 42.1789 29.7823 42.1901 29.7753C42.2217 29.7569 42.2217 22.8889 42.1901 22.7181C42.1608 22.5541 42.0344 22.2931 41.9193 22.1592C41.6733 21.8728 41.2535 21.7181 40.8811 21.7735ZM36.7556 18.9235C36.7781 18.9235 36.8028 18.9121 36.8095 18.9008C36.8185 18.8849 38.2546 18.8781 41.0481 18.8781C43.8483 18.8781 45.2709 18.8849 45.2709 18.9008C45.2709 18.9121 45.2956 18.9235 45.3249 18.9235C45.3541 18.9235 45.4417 18.9575 45.5226 19.0005C45.6575 19.0708 45.6912 19.0934 45.808 19.1954C45.8665 19.2453 46.0126 19.4674 46.0126 19.5036C46.0126 19.5218 46.0238 19.5354 46.035 19.5354C46.0485 19.5354 46.0575 19.5558 46.0575 19.5807C46.0575 19.6056 46.0687 19.626 46.08 19.626C46.0935 19.626 46.1025 19.6555 46.1025 19.6917C46.1025 19.7303 46.1137 19.7665 46.1249 19.7733C46.1384 19.7824 46.1474 19.9048 46.1474 20.0679C46.1474 20.2311 46.1384 20.3535 46.1249 20.3626C46.1137 20.3694 46.1025 20.4011 46.1025 20.4328C46.1025 20.4623 46.0935 20.4872 46.08 20.4872C46.0687 20.4872 46.0575 20.5031 46.0575 20.5212C46.0575 20.562 45.9721 20.7184 45.9361 20.741C45.9227 20.7501 45.9204 20.7591 45.9317 20.7591C45.9429 20.7591 45.9294 20.7773 45.9047 20.8022C45.8777 20.8249 45.8552 20.8521 45.8552 20.8589C45.8552 20.8815 45.7946 20.9404 45.7721 20.9404C45.7609 20.9404 45.7384 20.9608 45.7204 20.9858C45.7024 21.0107 45.6755 21.0311 45.6597 21.0311C45.644 21.0311 45.6305 21.0402 45.6305 21.0515C45.6305 21.0628 45.6058 21.0787 45.5743 21.0855C45.5429 21.0946 45.5181 21.1104 45.5181 21.1218C45.5181 21.1353 45.4934 21.1444 45.462 21.1444C45.4305 21.1444 45.4058 21.1535 45.4058 21.1671C45.4058 21.1784 45.3766 21.1897 45.3406 21.1897C45.3046 21.1897 45.2709 21.2011 45.2664 21.2124C45.2552 21.2464 36.8365 21.2464 36.8253 21.2124C36.8208 21.2011 36.7938 21.1897 36.7668 21.1897C36.7061 21.1897 36.3668 21.022 36.387 21.0016C36.3938 20.9926 36.387 20.9858 36.369 20.9858C36.3511 20.9858 36.3174 20.954 36.2926 20.9178C36.2679 20.8793 36.2297 20.843 36.2095 20.8362C36.187 20.8294 36.169 20.8067 36.169 20.7863C36.169 20.7637 36.1488 20.732 36.1241 20.7138C36.0994 20.6957 36.0791 20.664 36.0791 20.6413C36.0791 20.6186 36.0701 20.6005 36.0611 20.6005C36.0342 20.6005 35.9668 20.3626 35.9668 20.2719C35.9668 20.2288 35.9578 20.188 35.9443 20.1813C35.933 20.1745 35.9218 20.1223 35.9218 20.0679C35.9218 20.0135 35.933 19.9614 35.9443 19.9546C35.9578 19.9478 35.9668 19.8912 35.9668 19.8277C35.9668 19.7665 35.978 19.7167 35.9892 19.7167C36.0027 19.7167 36.0117 19.6895 36.0117 19.6577C36.0117 19.5898 36.0724 19.4515 36.1286 19.3903C36.151 19.3654 36.169 19.3314 36.169 19.3155C36.169 19.2997 36.1758 19.2861 36.187 19.2861C36.196 19.2861 36.2477 19.2407 36.3039 19.1841C36.3601 19.1297 36.4162 19.0844 36.432 19.0821C36.4455 19.0821 36.4612 19.073 36.4657 19.064C36.4769 19.0368 36.7106 18.9235 36.7556 18.9235ZM29.6422 0.497646C29.8042 0.308174 30.063 0.0707664 30.1485 0.0319595C30.1913 0.0136948 30.3106 0.00228119 30.4681 0C30.6932 0 30.7359 0.00684738 30.8957 0.0684814C31.0443 0.125553 31.1073 0.168926 31.2851 0.333286C31.8207 0.824085 32.3338 1.46555 32.6399 2.03168C32.6917 2.12527 32.7794 2.27366 32.8357 2.36269C32.9212 2.49965 33.153 2.94252 33.3803 3.40136C33.6684 3.98803 34.033 4.87604 34.2558 5.53576C34.5686 6.46486 34.7531 7.11774 34.9737 8.06966C35.0772 8.52394 35.246 9.49412 35.2775 9.81599C35.2799 9.83633 35.2826 9.86159 35.2855 9.88858C35.2907 9.93733 35.2965 9.99171 35.3023 10.0329C35.309 10.0945 35.3203 10.2132 35.327 10.2954C35.3338 10.3776 35.3473 10.5259 35.3585 10.6264C35.3968 10.9528 35.4103 12.0508 35.381 12.5394C35.3203 13.6031 35.2325 14.3839 35.1065 15.0093L35.0802 15.1432C35.066 15.2156 35.0545 15.2744 35.0502 15.2947C34.9467 15.8311 34.6294 17.0068 34.5033 17.315C34.4921 17.3401 34.4673 17.4108 34.4493 17.4748C34.4291 17.5364 34.3751 17.6597 34.3278 17.7464C34.222 17.945 34.1432 17.9952 33.9587 17.9838C33.7832 17.9701 33.6909 17.8971 33.6391 17.7281L33.5986 17.6003L33.6931 17.3309C33.7279 17.237 33.7719 17.1128 33.8103 17.0046L33.8106 17.0037L33.8108 17.0032L33.8108 17.0031C33.8319 16.9436 33.8513 16.889 33.8664 16.847C34.069 16.2786 34.2783 15.459 34.4223 14.6783C34.4943 14.2811 34.5146 14.1419 34.6069 13.3543C34.6564 12.9366 34.6766 11.277 34.6384 10.7907C34.6226 10.599 34.6024 10.3365 34.5934 10.2041C34.5731 9.91872 34.5123 9.41651 34.4786 9.25671C34.4651 9.19279 34.4516 9.0992 34.4471 9.04898C34.4426 8.99647 34.4313 8.92342 34.4246 8.88918L34.422 8.87532C34.414 8.83206 34.3983 8.74788 34.3863 8.6746C34.3728 8.59242 34.3323 8.42349 34.2985 8.29794C34.2378 8.07879 34.2288 8.0377 34.2018 7.84823C34.195 7.80257 34.1635 7.68615 34.1297 7.58571C34.0982 7.48755 34.0577 7.34145 34.0397 7.25927C33.9722 6.93968 33.5761 5.72295 33.3848 5.239C32.9572 4.16837 32.5544 3.30548 32.2213 2.75076C32.2014 2.71659 32.1766 2.67436 32.1507 2.63038L32.1503 2.6296L32.1502 2.62953C32.1088 2.55916 32.0649 2.48442 32.0345 2.43117C31.9827 2.34214 31.9197 2.24627 31.8927 2.21431C31.8657 2.18235 31.8274 2.12527 31.8094 2.08875C31.7689 2.01114 31.5349 1.66187 31.5124 1.64361C31.5034 1.63676 31.4719 1.59567 31.4426 1.5523C31.3323 1.39022 31.1883 1.22586 30.988 1.03182C30.7359 0.787563 30.6032 0.716797 30.4524 0.746471C30.3488 0.764732 30.0563 1.0615 29.973 1.2327C29.9392 1.30119 29.865 1.42446 29.8087 1.50664C29.7187 1.63448 29.4621 2.13441 29.3789 2.33986L29.3553 2.39847C29.3351 2.44869 29.3076 2.51717 29.2821 2.57955C29.0345 3.18449 28.8387 3.78486 28.7667 4.17066C28.742 4.29849 28.7127 4.42176 28.7015 4.44459C28.6699 4.50623 28.5214 5.12258 28.4494 5.50609C28.4134 5.69099 28.3526 5.94895 28.3166 6.07678C28.2423 6.33017 28.2153 6.48084 28.1681 6.90544C28.1501 7.0561 28.1253 7.22959 28.1118 7.29351C28.0983 7.35515 28.0781 7.5606 28.0668 7.75007C28.0556 7.93726 28.0353 8.20434 28.0195 8.34359C27.9903 8.63807 27.9745 10.3479 28.0015 10.5807C28.0105 10.6675 28.0263 10.7702 28.0353 10.809C28.0443 10.8455 28.0511 10.9186 28.0488 10.9688C28.0466 11.0601 28.1321 11.9162 28.1456 11.939C28.1501 11.9458 28.1591 12.0075 28.1681 12.076C28.1748 12.1444 28.1951 12.2723 28.2131 12.3613C28.2288 12.448 28.2559 12.6078 28.2694 12.7151C28.2851 12.8224 28.3279 13.0324 28.3639 13.1831C28.3938 13.3008 28.4291 13.4491 28.4539 13.553L28.4719 13.6283C28.5372 13.9045 28.7555 14.6441 28.8545 14.9294C28.8917 15.0329 28.9359 15.1576 28.9687 15.25L29.0008 15.3403C29.0773 15.5572 29.1538 15.7535 29.2708 16.0366C29.3294 16.1736 29.3901 16.3242 29.4059 16.3676C29.4711 16.5388 29.8515 17.2396 29.946 17.3606C30.2183 17.7099 30.2858 17.9724 30.1531 18.1733C30.099 18.2577 29.9347 18.3536 29.8447 18.3536C29.7232 18.3536 29.5904 18.2577 29.4801 18.0911C29.2866 17.8012 28.679 16.5662 28.5304 16.1667C28.5124 16.1211 28.4359 15.9179 28.3616 15.717C28.0601 14.9203 27.7315 13.7675 27.6167 13.1146L27.6023 13.0331C27.58 12.9071 27.5545 12.7628 27.5379 12.6809C27.4682 12.3156 27.3556 11.4824 27.3219 11.0944C27.2724 10.51 27.2499 8.68373 27.2881 8.25228C27.3039 8.05825 27.3759 7.45102 27.4479 6.88261C27.4659 6.74336 27.4974 6.53791 27.5154 6.42605L27.5297 6.34595C27.5453 6.25819 27.5598 6.17682 27.5649 6.14527C27.5717 6.10646 27.5829 6.07222 27.5919 6.07222C27.6009 6.07222 27.6032 6.03113 27.5987 5.98091C27.5919 5.92155 27.5987 5.8896 27.6167 5.8896C27.6302 5.8896 27.637 5.88046 27.6302 5.86905C27.6235 5.85992 27.6325 5.77317 27.6527 5.68186C27.6656 5.61491 27.6819 5.53278 27.6943 5.47056L27.7067 5.40793C27.7382 5.23215 27.8373 4.79842 27.9115 4.50851C27.9498 4.35784 27.9993 4.15239 28.0218 4.05195C28.0848 3.78258 28.1253 3.64561 28.2221 3.37853C28.2716 3.24612 28.3639 2.99045 28.4269 2.80783C28.778 1.82167 29.2056 1.00671 29.6422 0.497646ZM30.3075 3.17361C30.4358 2.84409 30.5056 2.69764 30.5462 2.6656C30.6137 2.61068 30.67 2.60839 30.7173 2.65416C30.8299 2.77087 31.3477 3.67705 31.6652 4.31321C31.8993 4.78461 31.9466 4.88301 31.9466 4.89445C31.9466 4.90818 32.0569 5.17591 32.2798 5.69766C32.4239 6.04091 32.5297 6.33382 32.6311 6.68164L32.6614 6.7789L32.6614 6.77897C32.6928 6.88 32.7326 7.00783 32.7639 7.10499C32.863 7.40476 32.9305 7.65419 32.9823 7.90591C33.0048 8.01346 33.0588 8.2606 33.1061 8.45511C33.2525 9.08669 33.4123 9.95626 33.4394 10.2743C33.4461 10.3361 33.4619 10.4711 33.4754 10.5718C33.5429 11.0867 33.5744 11.8396 33.5564 12.6199C33.5474 12.9792 33.5407 13.2927 33.5407 13.3178C33.5407 13.343 33.5317 13.4918 33.5204 13.6496C33.5001 13.938 33.4956 13.9883 33.4123 14.5421C33.3853 14.7114 33.3583 14.8968 33.3515 14.954C33.3448 15.0112 33.3223 15.1279 33.3043 15.2172C33.2862 15.3041 33.266 15.4071 33.2615 15.446C33.1894 15.9174 33.0183 16.5764 32.7819 17.2996C32.5703 17.9472 32.5005 18.0845 32.2933 18.2263C32.1402 18.3339 31.9489 18.3751 31.7462 18.343C31.4625 18.2996 31.2869 18.1531 31.0933 17.8007C30.8524 17.3613 30.4719 16.5764 30.33 16.224C30.3008 16.1485 30.2557 16.0433 30.2332 15.9906C30.2107 15.938 30.1904 15.8876 30.1904 15.8808C30.1904 15.8716 30.1769 15.8327 30.1589 15.7938C30.0779 15.6062 29.8482 14.9151 29.7289 14.4963C29.5555 13.8876 29.3664 13.0043 29.2898 12.4391L29.286 12.4122L29.286 12.4121C29.2738 12.3275 29.2622 12.2466 29.2561 12.2217C29.2493 12.1943 29.2358 12.0707 29.2223 11.9448C29.211 11.819 29.1908 11.6222 29.1773 11.51C29.1457 11.2011 29.112 10.3727 29.1052 9.70226C29.1007 9.26747 29.1097 8.99745 29.139 8.69539C29.1615 8.46884 29.1773 8.24229 29.1773 8.19195C29.175 8.14161 29.175 8.08898 29.1795 8.07753C29.1818 8.0638 29.1863 8.01804 29.1885 7.97456C29.1975 7.78234 29.229 7.53977 29.2606 7.40705C29.2786 7.32696 29.2898 7.24458 29.2831 7.22169C29.2741 7.1805 29.3101 6.91048 29.3574 6.6702C29.3709 6.60155 29.3912 6.47798 29.4024 6.3956C29.4137 6.31322 29.4384 6.19423 29.4564 6.13244C29.4767 6.06837 29.5307 5.83267 29.5803 5.60612C29.7649 4.76401 30.0103 3.9425 30.3075 3.17361ZM40.2602 4.9939C40.2101 5.00311 40.1213 5.01463 40.0575 5.02154C39.7683 5.05378 39.1807 5.19197 39.1807 5.22652C39.1807 5.23803 39.1625 5.24494 39.1397 5.24494C39.1169 5.24494 39.0896 5.25185 39.0805 5.26106C39.0714 5.27258 39.0555 5.27949 39.0486 5.28179C39.0395 5.28179 38.9758 5.31174 38.9074 5.34398C38.8391 5.37853 38.7708 5.40616 38.7571 5.40616C38.7457 5.40616 38.6865 5.43611 38.6273 5.47526C38.5681 5.51211 38.5203 5.53745 38.5203 5.52823C38.5203 5.51902 38.5066 5.53053 38.493 5.55126C38.477 5.57199 38.4497 5.59042 38.4315 5.59502C38.4132 5.59963 38.3791 5.62036 38.3563 5.64109C38.3335 5.66412 38.3017 5.68254 38.2834 5.68254C38.2652 5.68254 38.2447 5.69867 38.2379 5.71939C38.2311 5.73782 38.2151 5.74703 38.2014 5.74012C38.1901 5.73321 38.1787 5.73552 38.1787 5.74703C38.1787 5.75855 38.14 5.7954 38.0921 5.82764C37.9373 5.92898 37.4932 6.36428 37.3657 6.53932C37.2951 6.63145 37.2313 6.70975 37.2199 6.71436C37.2085 6.71897 37.1994 6.73279 37.1994 6.74661C37.1994 6.76043 37.147 6.84104 37.0855 6.92625C36.9808 7.06905 36.7257 7.55271 36.687 7.67939C36.6802 7.70933 36.6642 7.73236 36.6551 7.73236C36.646 7.73236 36.6369 7.75539 36.6369 7.78303C36.6346 7.81297 36.621 7.83831 36.6073 7.84291C36.5959 7.84752 36.5891 7.86134 36.5959 7.87055C36.6027 7.88207 36.5982 7.91201 36.5845 7.93965C36.5766 7.95717 36.5644 7.98131 36.5538 8.00215L36.5413 8.02717C36.5094 8.09396 36.4342 8.39337 36.3796 8.66514C36.3522 8.80333 36.3204 8.93692 36.309 8.95995C36.2976 8.98298 36.293 9.01062 36.2999 9.02213C36.3067 9.03365 36.2976 9.13729 36.2794 9.25706C36.1655 9.99177 36.1518 11.042 36.2452 11.8896C36.2566 11.9909 36.2702 12.1245 36.2748 12.189C36.2907 12.3709 36.3317 12.7279 36.3591 12.8799C36.4684 13.534 36.5663 14.0269 36.6415 14.3079C36.6825 14.4599 36.7371 14.6718 36.7644 14.78C36.7895 14.8883 36.8328 15.0541 36.8601 15.1486C36.8851 15.243 36.9375 15.4341 36.9762 15.5746C37.0582 15.8833 37.1698 16.2333 37.2222 16.3577C37.245 16.4084 37.286 16.512 37.3156 16.588C37.3396 16.6548 37.3899 16.782 37.4327 16.89L37.4499 16.9335C37.4977 17.0464 37.5433 17.1661 37.5524 17.1984C37.5615 17.2306 37.6162 17.355 37.6708 17.4747C37.7278 17.5945 37.7938 17.7442 37.8189 17.8087C37.9077 18.0413 38.0056 18.2141 38.0807 18.2809C38.1468 18.3407 38.1764 18.35 38.288 18.35C38.4474 18.35 38.559 18.2947 38.6159 18.1864C38.6934 18.039 38.6729 17.9446 38.4611 17.454C38.165 16.7723 38.1468 16.7285 38.0215 16.3807C37.9008 16.0445 37.7619 15.6115 37.5114 14.7916C37.3634 14.3056 37.2996 14.0315 37.2358 13.6285C37.2237 13.5486 37.2014 13.4115 37.1792 13.2743L37.147 13.0757C37.1151 12.8914 37.0787 12.6473 37.065 12.5345C37.0514 12.4193 37.0241 12.1913 37.0036 12.0278C36.9831 11.8619 36.958 11.5879 36.9466 11.4174C36.9193 10.9775 36.9443 9.69466 36.9831 9.5058C36.9899 9.47355 37.0058 9.36991 37.0195 9.27548C37.0787 8.83788 37.1926 8.37955 37.3064 8.11238C37.5934 7.43756 37.8758 7.01377 38.3153 6.5992C38.6205 6.30901 39.0805 6.04875 39.5565 5.89213C39.9937 5.74703 40.4834 5.69867 40.8455 5.76085C40.9202 5.77248 41.0503 5.7942 41.1853 5.81674C41.2642 5.82992 41.3448 5.84339 41.4171 5.85528C41.7063 5.90134 41.8156 5.93129 41.9796 6.00499C42.4146 6.19615 42.697 6.36889 42.9976 6.61763C43.28 6.85255 43.8447 7.48592 44.2957 8.06862C44.5143 8.35422 44.9197 8.91849 44.9197 8.93922C44.9197 8.94613 44.9515 8.98528 44.988 9.02674C45.0267 9.0682 45.0563 9.10965 45.0563 9.12117C45.0563 9.13268 45.1041 9.2156 45.1611 9.30542C45.3888 9.66011 45.6598 10.1323 45.8761 10.5537C45.9695 10.7311 46.0515 10.8808 46.0606 10.8877C46.0971 10.913 46.3863 11.5902 46.409 11.7053C46.4159 11.7307 46.466 11.8758 46.5206 12.0278C46.6072 12.265 46.7324 12.6565 46.7712 12.8108C46.7735 12.8195 46.7785 12.8392 46.7853 12.8661L46.7853 12.8662L46.7853 12.8662C46.7985 12.9181 46.8185 12.9969 46.8395 13.0757C46.9192 13.3797 46.9647 13.64 46.9921 13.9509C47.0376 14.4829 47.008 14.9942 46.9237 15.0795C46.7916 15.213 45.8875 15.1992 45.3296 15.0564C44.7238 14.9044 44.5735 14.8607 44.4073 14.7985L44.3492 14.7771L44.3489 14.777C44.2467 14.7393 44.1067 14.6877 44.0087 14.6534C43.3711 14.43 42.1823 13.8611 41.4353 13.4212C41.1051 13.2277 40.784 13.0458 40.6359 12.9698C40.579 12.9398 40.513 12.8938 40.4902 12.8684C40.4651 12.8408 40.2761 12.7049 40.0689 12.5644C39.8616 12.4239 39.6681 12.2857 39.6362 12.2581C39.6043 12.2304 39.4677 12.1268 39.3287 12.0278C39.1921 11.9287 39.0395 11.8159 38.994 11.7767C38.9484 11.7376 38.8824 11.6823 38.8459 11.6546C38.4975 11.3829 38.1605 11.1042 37.9168 10.8808C37.8644 10.8347 37.8097 10.7956 37.7984 10.7956C37.7756 10.7956 37.7847 10.8969 37.8507 11.3598C37.9008 11.7284 38.0603 12.6934 38.1012 12.8799C38.1195 12.9675 38.1445 13.0918 38.1559 13.1563C38.2402 13.6515 38.4633 14.5797 38.6524 15.2407L38.6816 15.3452C38.73 15.5184 38.7827 15.7068 38.8072 15.8003C38.8368 15.9109 38.871 16.0238 38.8847 16.0491C38.8983 16.0744 38.9553 16.2218 39.0099 16.3761C39.208 16.9404 39.2422 17.0325 39.3971 17.3941C39.409 17.4218 39.4378 17.4964 39.4687 17.5768L39.4995 17.6567C39.7022 18.1726 39.9209 18.3361 40.4105 18.3338C40.7771 18.3338 40.866 18.2809 41.1871 17.887C41.2303 17.8317 41.31 17.7235 41.3601 17.6475C41.4649 17.4886 41.8976 16.6341 41.9773 16.4268C42.0069 16.3508 42.098 16.1113 42.18 15.8925C42.3645 15.4042 42.4578 15.2706 42.6787 15.1693C42.7812 15.1209 42.8586 15.1025 42.9497 15.1025C43.0864 15.1025 43.0909 15.1071 43.0499 15.2407C43.044 15.2634 43.0301 15.3135 43.013 15.3752C42.9972 15.4321 42.9786 15.499 42.9611 15.5631C42.9019 15.7842 42.7972 16.109 42.6878 16.4038C42.5785 16.6963 42.5193 16.8483 42.4829 16.9335C42.4601 16.9842 42.3986 17.1293 42.3462 17.2559C42.2916 17.3826 42.2028 17.5784 42.1481 17.6912C42.0342 17.9331 42.0229 18.0482 42.1026 18.168C42.2438 18.3822 42.5193 18.4167 42.6787 18.2417C42.7266 18.1887 42.9839 17.6912 42.9839 17.6521C42.9839 17.6452 43.0203 17.5623 43.0636 17.4678C43.1069 17.3734 43.1433 17.2859 43.1433 17.2721C43.1433 17.2606 43.1706 17.1892 43.2025 17.1155C43.2572 16.9911 43.3232 16.8114 43.5077 16.2886C43.5965 16.0307 43.7309 15.5908 43.7491 15.4871C43.7559 15.4411 43.7719 15.395 43.7855 15.3881C43.7969 15.3812 43.9062 15.4111 44.0315 15.4572C44.3162 15.5631 45.3319 15.8234 45.6735 15.8764C45.842 15.904 46.0674 15.9178 46.3202 15.9178C46.7689 15.9201 46.9875 15.8764 47.2289 15.7359C47.4339 15.6184 47.5067 15.5424 47.5978 15.3489C47.6616 15.2107 47.6821 15.1324 47.698 14.9597C47.7322 14.6073 47.7254 13.8265 47.6866 13.6285C47.6768 13.5774 47.6636 13.5055 47.6504 13.4331C47.6391 13.3716 47.6277 13.3097 47.6183 13.26C47.5568 12.9122 47.3838 12.2949 47.254 11.9587L47.2305 11.8939L47.2304 11.8937L47.2303 11.8934L47.2302 11.8933L47.2302 11.8932C47.204 11.821 47.172 11.7329 47.1515 11.6708C47.1219 11.5879 47.0809 11.4796 47.0604 11.4289C47.0464 11.3945 47.0262 11.3429 47.0075 11.2954L46.9829 11.2332C46.8554 10.9084 46.4819 10.0977 46.425 10.0263C46.4136 10.0125 46.3453 9.88582 46.2747 9.74763C46.0993 9.41137 45.7145 8.76648 45.4731 8.40488C45.2931 8.13772 44.824 7.49053 44.7215 7.37307C44.6988 7.34543 44.5781 7.20033 44.4528 7.05062C43.9814 6.48174 43.5145 6.05105 42.9292 5.64339C42.7516 5.51902 42.7083 5.49599 42.4146 5.35319C42.0661 5.18506 41.7928 5.11136 41.2076 5.02384C40.9411 4.98469 40.4196 4.96856 40.2602 4.9939Z" fill="#92B774"/>
</svg>
