<svg width="24" height="24" viewBox="0 0 24 24" fill="none" xmlns="http://www.w3.org/2000/svg">
<g clip-path="url(#clip0_432_677)">
<path d="M21.867 1.61217L17.515 0.155166C16.936 -0.0414659 16.3103 -0.0536942 15.724 0.120166L8.538 2.09217L4.155 0.233166C3.69923 0.0430366 3.20356 -0.0316374 2.712 0.015771C2.22044 0.0631794 1.74819 0.231204 1.33715 0.504933C0.926109 0.778661 0.589002 1.14963 0.355743 1.58491C0.122484 2.02019 0.000287993 2.50632 0 3.00017L0 21.7542L7.982 24.0352L16.003 22.0352L24.003 23.9832V4.48317C24.0026 3.83866 23.7946 3.21142 23.4099 2.69433C23.0252 2.17723 22.4842 1.79778 21.867 1.61217ZM15 2.38417V20.2192L9 21.7192V3.97217L15 2.38417ZM2 3.00017C2.00034 2.83549 2.04135 2.67346 2.11937 2.52844C2.19739 2.38343 2.31001 2.25993 2.44724 2.1689C2.58447 2.07788 2.74205 2.02215 2.90599 2.00667C3.06993 1.99119 3.23516 2.01644 3.387 2.08017L7 3.58117V21.6742L2 20.2462V3.00017ZM22 21.4302L17 20.2122V2.09217L21.275 3.52217C21.4838 3.58189 21.6675 3.70797 21.7983 3.88135C21.9291 4.05473 21.9999 4.26598 22 4.48317V21.4302Z" fill="black"/>
</g>
<defs>
<clipPath id="clip0_432_677">
<rect width="24" height="24" fill="white"/>
</clipPath>
</defs>
</svg>
