<svg width="24" height="24" viewBox="0 0 24 24" fill="none" xmlns="http://www.w3.org/2000/svg">
<path d="M21.786 20.023C21.773 20.026 21.385 20.109 20.75 20.225C20.915 18.589 21 17.338 21 16.511C21 14.039 20.778 12.42 20.614 11.558C21.949 11.119 23 10.245 23 8.5C23 6.151 20.924 4.285 18.893 3.489C18.802 3.45 17.383 2.854 15.496 2.429C12.998 1.75 9.461 1.001 6 1.001C5.583 1.001 5.208 1.261 5.063 1.652C4.917 2.044 5.03 2.485 5.346 2.757C5.544 2.928 5.769 3.105 5.988 3.281C5.417 3.548 4.873 3.856 4.392 4.224C4.142 4.415 3.997 4.712 4 5.026C4.003 5.34 4.152 5.634 4.404 5.821C6.646 7.483 10.113 7.885 12.013 7.976C12.039 8.418 12.115 8.81 12.215 9.18C6.789 9.943 3.944 13.187 3.551 19.045C3.382 19.018 3.201 19.001 3 19.001C1.617 19.001 1 19.618 1 21.001C1 22.384 1.617 23.001 3 23.001C3.718 23.001 4.226 22.83 4.552 22.477C6.753 22.98 10.294 23.001 12.574 23.001C16.748 23.096 22.183 22.014 22.215 21.978C22.755 21.86 23.096 21.327 22.977 20.787C22.858 20.247 22.322 19.904 21.786 20.025V20.023ZM7.033 4.992C8.587 4.312 10.502 4 12 4C13.058 4 14.14 4.171 15.096 4.39C16.653 4.818 17.61 5.162 18.136 5.34C19.559 5.898 21 7.163 21 8.5C21 9.593 19.78 10 16.5 10C14.809 10 14.131 9.483 14.018 8H14.962C15.514 8 15.962 7.552 15.962 7C15.962 6.448 15.514 6 14.962 6H13.001C11.226 6 8.845 5.722 7.033 4.992ZM12.804 21C10.924 21 7.611 21 5.499 20.632C5.448 14.47 7.81 11.497 13.367 11.069C14.111 11.683 15.15 12.001 16.499 12.001C17.113 12.001 17.87 11.998 18.647 11.929C18.795 12.702 18.999 14.184 18.999 16.512C18.999 17.359 18.899 18.72 18.704 20.555C18.172 20.63 17.596 20.704 16.984 20.77C16.909 17.528 15.327 16.001 11.999 16.001C11.447 16.001 10.999 16.449 10.999 17.001C10.999 17.553 11.447 18.001 11.999 18.001C14.274 18.001 14.982 18.693 14.996 20.936C14.273 20.98 13.535 21.004 12.804 21Z" fill="black"/>
</svg>
