<svg width="879" height="969" viewBox="0 0 879 969" fill="none" xmlns="http://www.w3.org/2000/svg">
<path d="M829 439.5C829 654.615 654.615 829 439.5 829C224.385 829 50 654.615 50 439.5C50 224.385 224.385 50 439.5 50C654.615 50 829 224.385 829 439.5ZM58.9469 439.5C58.9469 649.674 229.326 820.053 439.5 820.053C649.674 820.053 820.053 649.674 820.053 439.5C820.053 229.326 649.674 58.9469 439.5 58.9469C229.326 58.9469 58.9469 229.326 58.9469 439.5Z" fill="#92B774" fill-opacity="0.33"/>
<path d="M855 439.5C855 668.974 668.974 855 439.5 855C210.026 855 24 668.974 24 439.5C24 210.026 210.026 24 439.5 24C668.974 24 855 210.026 855 439.5ZM33.5442 439.5C33.5442 663.703 215.297 845.456 439.5 845.456C663.703 845.456 845.456 663.703 845.456 439.5C845.456 215.297 663.703 33.5442 439.5 33.5442C215.297 33.5442 33.5442 215.297 33.5442 439.5Z" fill="#92B774" fill-opacity="0.66"/>
<path d="M879 439.5C879 682.229 682.229 879 439.5 879C196.771 879 0 682.229 0 439.5C0 196.771 196.771 0 439.5 0C682.229 0 879 196.771 879 439.5ZM10.0955 439.5C10.0955 676.654 202.346 868.905 439.5 868.905C676.654 868.905 868.905 676.654 868.905 439.5C868.905 202.346 676.654 10.0955 439.5 10.0955C202.346 10.0955 10.0955 202.346 10.0955 439.5Z" fill="#92B774" fill-opacity="0.99"/>
</svg>
